<?xml version="1.0" encoding="UTF-8"?>
<svg id="Layer_1" xmlns="http://www.w3.org/2000/svg" version="1.1" viewBox="0 0 100 100">
  <!-- Generator: Adobe Illustrator 29.1.0, SVG Export Plug-In . SVG Version: 2.1.0 Build 142)  -->
  <path d="M44.77,21.12l-7.67-7.51H0v13.23h5.34v46.32H0v13.25h37.02l7.75-7.83v-27.78l-4.84-4.98,4.84-4.84v-19.86ZM18.56,26.84h12.99v13.2h-12.99v-13.2ZM18.56,73.16v-19.78h12.99v19.78h-12.99Z"/>
  <polygon points="100 13.59 100 26.84 94.66 26.84 94.66 78.8 87.07 86.39 61.28 86.39 53.52 78.8 53.52 26.84 48.18 26.84 48.18 14.41 48.98 14.41 48.98 14.38 48.18 14.38 48.18 13.59 72.08 13.59 72.08 26.84 66.75 26.84 66.75 73.16 81.44 73.16 81.44 26.84 76.1 26.84 76.1 13.59 100 13.59"/>
</svg>