<?xml version="1.0" encoding="UTF-8"?>
<svg id="Layer_1" xmlns="http://www.w3.org/2000/svg" version="1.1" viewBox="0 0 100 100">
  <!-- Generator: Adobe Illustrator 29.1.0, SVG Export Plug-In . SVG Version: 2.1.0 Build 142)  -->
  <path d="M50,0C22.39,0,0,22.39,0,50s22.39,50,50,50,50-22.39,50-50S77.61,0,50,0M84.44,84.43c-9.2,9.2-21.43,14.26-34.43,14.26s-25.24-5.07-34.44-14.26C6.37,75.24,1.3,63.01,1.3,50S6.37,24.76,15.57,15.57C24.76,6.37,36.99,1.3,50,1.3s25.24,5.07,34.43,14.26c9.2,9.2,14.26,21.43,14.26,34.44s-5.07,25.24-14.26,34.43"/>
  <path d="M50,3.04C24.06,3.04,3.04,24.06,3.04,50s21.03,46.96,46.96,46.96,46.96-21.03,46.96-46.96S75.94,3.04,50,3.04M82.84,82.84c-8.77,8.77-20.43,13.6-32.84,13.6s-24.07-4.83-32.84-13.6c-8.77-8.77-13.6-20.43-13.6-32.84s4.83-24.07,13.6-32.84C25.93,8.39,37.59,3.56,50,3.56s24.07,4.83,32.84,13.6c8.77,8.77,13.6,20.43,13.6,32.84s-4.83,24.07-13.6,32.84"/>
  <path d="M50,14.15c-19.77,0-35.85,16.08-35.85,35.85s16.08,35.85,35.85,35.85,35.85-16.08,35.85-35.85S69.77,14.15,50,14.15M50,85.33c-19.51,0-35.33-15.82-35.33-35.33S30.49,14.67,50,14.67s35.33,15.82,35.33,35.33-15.82,35.33-35.33,35.33"/>
  <path d="M50,16.41c-18.52,0-33.59,15.07-33.59,33.59s15.07,33.59,33.59,33.59,33.59-15.07,33.59-33.59-15.07-33.59-33.59-33.59M54.24,23.75c.32.68.63,1.33.63,2.11,0,.13,0,.25-.02.36,0,.04-.02.08-.03.12-.01.07-.03.14-.04.2-.06.19-.16.36-.27.49,0,0,0,0,0,0-.24.27-.6.41-1.07.41-.39,0-.69-.08-.93-.24.03-.06.06-.13.08-.2.02-.05.04-.11.05-.17,0-.03.01-.05.02-.08.01-.05.02-.1.03-.15,0-.05.01-.09.02-.14,0-.04.01-.08.01-.13,0-.1.01-.2.01-.3-.04-.66-.3-1.26-.67-1.85.3-1.18.92-2.35,1.56-3.18-.09,1.18.26,2.01.62,2.76M55.1,24.52c.14-.44.25-.87.26-1.26.74.81,1.09,1.59,1.09,2.44,0,.13,0,.25-.02.37,0,.03,0,.07-.01.1-.01.1-.03.19-.05.28-.01.04-.02.08-.04.12-.02.06-.04.12-.06.17-.02.05-.04.09-.06.13-.01.03-.03.06-.05.09-.05.08-.11.16-.17.22-.01.01-.02.03-.03.04-.23.22-.54.35-.93.35-.07,0-.14,0-.2-.02.14-.14.24-.32.33-.51.06-.12.1-.26.14-.4.01-.05.03-.09.04-.15.01-.05.02-.11.03-.16.02-.13.03-.27.03-.41,0-.51-.11-.97-.27-1.4M68.04,68.44c1.11,0,2.19-.42,2.91-1.14.48-.48.77-1.05.84-1.67.12.05.25.13.37.22.01,0,.03.01.04,0,.01,0,.03-.02.03-.03.23-.72.06-1.41-.55-2.25-.61-.83-1.83-1.34-3.26-1.37-.03,0-.07,0-.1,0-1.68,0-2.53.74-2.95,1.36-.58.86-.57,1.87-.32,2.45,0,.01.02.02.03.03.02,0,.03,0,.04-.01.13-.16.31-.32.51-.45.93.79,2.38.91,3.49.74.57-.09,1-.31,1.2-.62.14-.22.17-.47.09-.74-.17-.57-1.14-.78-1.77-.67-.59.1-1.1.33-1.96,1.2-.03.03-.06.04-.08.03-.02,0-.03-.03-.03-.05-.04-.53-.02-1.18,0-1.5.29-.44,1.13-.9,2-.9h.02c.74,0,1.33.15,1.63.4.21.17.51.76.69,1.24.28.72.22,1.18-.22,1.79-.4.56-1.44,1.16-2.78,1.16s-2.19-.27-3.04-.92c0,0,0,0,0,0-.54-.63-.6-1.23-.28-3.57.39-2.89.31-6.4.08-8.88-.23-2.44-.7-5.15-1.06-6.75-.14-.63-.25-1.14-.27-1.29,0-.71.3-1.38.81-1.88.59-.57,1.42-.86,2.36-.84,1.63.03,2.6.56,2.89,1.57.04.13.06.74.08,1.45.06,1.76.15,4.72.64,8.23.76,5.43,1.65,7.43,2.24,8.75.35.78.58,1.3.64,2.16.05.84-.21,1.57-.78,2.17-1.05,1.1-3.12,1.7-5.7,1.65-.63-.01-1.23-.04-1.8-.07.06-.31.11-.63.15-.95.01-.09.03-.22-.04-.28-.07-.05-.21-.02-.29.02-.81.31-1.54.65-2.2,1.01-1.33-.15-2.54-.34-3.73-.53-2.44-.38-4.75-.75-7.88-.75-4.52,0-8.43.52-11.62,1.06-1.07-.83-2.29-1.3-3.57-1.56.3-.41.5-.9.6-1.47.12-.7.02-1.72-.13-3.13-.23-2.24-.29-4.81.12-8.51.38-3.47.76-5.63.99-6.69.04-.2.09-.37.14-.51,1.68-.19,3.27-.43,4.81-.66,2.55-.39,4.96-.75,7.04-.75,3.91,0,6.88.42,9.51.79,1.57.22,2.95.42,4.31.49.03.18.08.38.15.62.43,1.48.81,4.27,1.01,6.69.2,2.45.23,5.93-.17,8.76-.4,2.92-.26,3.34.49,4.14.89.96,2.33,1.19,3.35,1.22h.27ZM75.15,38.04c2.04,1.7,3.15,3.89,3.12,6.04-.02,1.43-.51,2.58-1.09,3.4-.27.23-.53.47-.77.73.35-1.99.43-5.04,0-6.57-.01-.05-.06-.07-.1-.06-.05.01-.07.05-.07.1.22,1.22.3,3.43-.54,7.06-.28-1-.7-1.95-1.17-2.78-.29-1.63.02-3.12.31-4.5.24-1.12.41-2.37.3-3.41M77.6,55.37s-.08-.04-.12-.02c-1.42.97-3.19,3.08-4.28,4.74.51-1.03.86-2.26.85-3.61,0-.08,0-.15,0-.23.17-.26.37-.51.6-.74.46-.46,1.35-.99,2.3-1.55,1.13-.67,2.38-1.41,3.25-2.23-.23,1.7-.95,5.16-3.02,7.24-.08.02-.15.04-.23.07-1.15.33-2.23.64-3.09,1.05,1.51-2.19,2.38-3.26,3.73-4.61.03-.03.03-.08,0-.12M78.49,52.44c-.58.39-1.2.76-1.79,1.11-.11.07-.22.13-.33.2-.12.05-.25.1-.37.15.69-1.73,1.44-3.16,2.47-4.77.02-.04.02-.09-.02-.12-.04-.03-.09-.02-.12.01-.78.89-1.69,2.05-2.71,4.55,0-.02,0-.04-.01-.06.47-1.3.52-2.61.31-3.84.57-1.15,1.6-1.91,2.76-2.8.57-.43,1.18-1.11,1.67-1.62.25,2.86.15,5.39-1.85,7.18M74.33,55.16s-.02.02-.03.02c-.07.07-.13.14-.19.21.05-1.98-.17-5.3-.88-7.18-.01-.04-.06-.07-.1-.05-.04.01-.07.06-.06.1.35,1.93.47,3.48.49,5.59-.38-.99-.96-1.94-1.76-2.86-.2-1.71-.01-3.33.2-4.92.12-.91.23-1.78.27-2.62,1.78,2.11,5.09,7.23,2.07,11.7M73.57,56.5c.02,1.89-.73,3.54-1.58,4.66-.12-.37-.25-.8-.37-1.28.17-2.02.19-4.21-.08-5.18-.01-.04-.05-.07-.1-.06-.04,0-.08.04-.07.09.03,1.5,0,2.67-.09,3.71-.22-1.03-.44-2.26-.65-3.75-.09-.65-.17-1.29-.24-1.89.2-.76.35-1.49.34-2.2,1.79,1.56,2.82,3.79,2.84,5.91M62.8,70.7s-.09-.03-.12,0c-.88.89-2.44,2.59-3.86,4.39.4-.9.71-1.98.86-3.26,1.14-1.32,2.73-2.4,4.78-3.19-.46,3.04-1.63,5.37-3.55,7.07-.66-.04-1.33-.03-2,.08.63-.85,1.32-1.7,1.99-2.54.71-.88,1.38-1.71,1.91-2.44.03-.04.02-.09-.02-.12M56.62,73.99s-.09,0-.11.05c-.69,1.62-1.75,3.11-3.24,4.54-.25-4.3,2.09-5.75,4.58-7.41.48-.32.98-.65,1.46-1.01-.08,3.08-.98,7.48-5.56,8.83,1.44-1.83,2.32-3,2.93-4.89.01-.05,0-.09-.05-.11M53.37,68.55c1.32.09,2.53.25,3.71.43l.24,1.96c-1.43.91-2.86,1.87-3.73,3.43l-.23-5.82ZM64.6,69.93c.6.04,1.23.07,1.9.08.03,0,.07,0,.1,0-.73.6-1.55,1.19-2.53,1.83.22-.6.39-1.23.53-1.91M67.25,70c.9-.03,1.72-.13,2.46-.31-.25.36-.53.71-.83,1.04-1.32.17-2.53.49-3.62.95.75-.55,1.43-1.13,1.99-1.68M49.07,68.48c.24,0,.48-.01.73-.02l.1,7.92s.04.09.09.09.09-.04.09-.09l.1-7.92c.18,0,.37,0,.55,0,.06,0,.11,0,.17,0l-.18,5.6s.04.09.08.09h0s.08-.04.09-.08l.33-5.61c.23,0,.47,0,.7.01l-.59,9.4h-2.68l-.59-9.36c.22-.01.44-.02.67-.03l.32,5.76s.04.08.09.08h0s.09-.04.08-.09l-.16-5.76ZM48.99,78.29h2.03c.74,0,.86.08.98.15.18.11.23.21.23.47s-.05.37-.23.47c-.1.06-.24.14-.91.14h-2.16c-.67,0-.81-.08-.91-.14-.18-.11-.22-.21-.22-.47s.05-.37.22-.47c.11-.07.24-.15.98-.15M43.29,73.78c.49.74,1.86,3.12,2.8,5.02-.02,0-.04-.02-.06-.03-.87-.89-1.76-1.47-2.64-1.84-2.16-2.25-2.31-5.16-2.3-6.78.52.48,1.1.92,1.66,1.35,2.17,1.65,4.41,3.14,3.98,7.28-.15-.3-.35-.64-.62-1.11-.15-.26-.32-.55-.52-.9-.53-.92-1.52-2.64-2.17-3.11-.03-.02-.08-.02-.11,0-.03.03-.04.07-.01.11M36.97,73.94c.84.94,2.04,1.73,3.46,2.33-.55-.04-1.08-.06-1.6-.07-.58-.01-1.14-.03-1.68-.09-1.56-.78-2.77-1.94-3.64-3.52,2.78-.35,5.27-.13,7.66,1.52.28.83.65,1.57,1.13,2.24-2.29-.64-4.03-1.73-5.2-2.55-.04-.03-.09-.02-.11.01-.03.03-.03.08,0,.11M24.79,62.62c.53.38,1.2,1.03,1.85,1.87-.13.45-.18.91-.15,1.48.02.27.05.54.11.8-.15,0-.29,0-.44-.02-.78-.41-1.45-1.05-2.1-1.99-.34-.48-.64-1.03-.96-1.6-.47-.84-.99-1.78-1.73-2.66.37.06.77.12,1.18.17,1.72.23,3.67.49,4.95,1.61-.12.31-.23.58-.34.83-.14.33-.26.62-.36.9-.61-.68-1.24-1.2-1.91-1.54-.04-.02-.09,0-.11.03-.02.04-.01.09.02.12M28.3,55.06s-.09.01-.11.05c-.52,1.45-1.08,3.47-.9,6.36-2.74-4.34-.11-8.4,2.02-10.67.09.74.26,1.5.44,2.29-.08.62-.19,1.27-.32,1.95-.59,3.09-1.16,5.04-1.65,6.4-.18-1.83,0-3.93.57-6.28.01-.05-.01-.09-.06-.1M28.43,51.06c-.8.92-1.39,1.81-1.82,2.66-.01.01-.03.02-.04.03.35-2.06.67-5.13.44-6.33,0-.05-.05-.08-.1-.07-.05,0-.08.05-.07.1.12,1.06-.22,3.63-.74,6-.08-.1-.15-.21-.22-.31-.22-.71-.54-1.36-.97-1.95-.2-.84-.08-1.65.28-2.72.2-.61.41-.89.68-1.76.31-1.02.69-2.44.92-3.61.04.1.09.2.14.31,1.03,2.29,2.32,5.07,1.49,7.66M24.73,48.35c-.24.73-.38,1.36-.4,1.95-.88-2.03-1.34-4.06-1.51-6.62,0-.04-.04-.08-.08-.08-.04,0-.08.03-.09.08-.26,2.07.27,4.44.92,6.13-.34-.27-.7-.52-1.11-.75-2.46-3.61-.66-8.49.38-10.6.22.77.53,2.01.85,2.82.71,1.83,1.46,3.75,1.44,6.05-.15.36-.28.61-.41,1.01M25.73,56.3c-.96-1.83-2.82-4.64-4.23-5.81-.04-.03-.09-.03-.12,0-.03.03-.03.08,0,.12,1.38,1.67,2.46,3.4,3.74,5.71-.88-.98-1.92-1.65-2.86-2.25-.44-.28-.88-.55-1.28-.84-.95-1.31-1.28-2.75-1.29-4.83,4.37,1.34,6.29,3.86,6.04,7.9M22,54.49c1.31.84,2.74,1.75,3.64,3.41.04.88.24,1.67.5,2.37,0,0,0-.01-.01-.01-.9-1.06-1.83-2.16-4.01-3.97-.03-.03-.08-.03-.12,0-.03.03-.03.08,0,.12.28.34.74.84,1.26,1.41.86.93,1.9,2.07,2.64,3.04-.67-.23-1.38-.38-2.08-.49-.82-.38-1.63-.94-2.31-1.72-1.29-1.48-2.04-3.68-1.88-6.08.58.65,1.54,1.39,2.37,1.93M27.62,63.31c.57-1.39,1.44-3.48,2.33-8.17.7-3.7.69-6.63.68-8.39,0-.85,0-1.52.08-1.75.53-1.41,2.17-1.9,3.45-1.63,2.23.45,2.77,2.09,2.82,2.73.03.38-.06.76-.23,1.52-.25,1.06-.65,3.22-1.07,6.68-.46,3.72-.43,6.31-.22,8.55.12,1.3.21,2.33.1,2.96-.11.61-.37,1.11-.76,1.49-.61-.09-1.24-.14-1.86-.17-.1,0-.21.02-.25.11-.05.1,0,.22.09.33.1.13.19.27.28.42-.22.03-.45.05-.68.05h-.06c-1.14,0-2.37-.57-2.96-1.36-.42-.57-.47-.96-.22-1.75.13-.41.45-.94.71-1.18.31-.28.93-.45,1.67-.45,1.08,0,1.98.43,2.28.84-.03.46-.06.85-.13,1.34,0,.02-.01.04-.03.05-.02,0-.05,0-.08-.03-.6-.54-1.71-.89-2.4-.89h-.03c-.56.01-1.04.17-1.28.43-.14.15-.21.34-.2.55.03.51.34,1.11,1.67,1.11h.08c1.27-.02,2.4-.37,2.88-.88.19.1.4.24.62.4.01,0,.03.01.04,0,.01,0,.02-.01.03-.03.22-.6.19-1.55-.38-2.35-.42-.59-1.27-1.28-2.95-1.28-.04,0-.07,0-.11,0-1.27.02-2.48.52-3.23,1.34-1.02,1.1-.69,3.11-.09,3.68.01,0,.03.01.04.01.01,0,.02-.01.03-.02.06-.13.14-.28.26-.42.73,1.01,1.97,1.57,3.56,1.57.04,0,.08,0,.12,0,.42,0,.8-.05,1.17-.13.08.16.16.32.25.5.13.26.27.53.42.81-.76.12-1.4.2-1.89.21-2.44.05-4.98-1.23-5.13-4.18-.05-1,.19-1.58.62-2.63M33.38,67.65c2.65.17,5.44.77,7.27,3.85.06.68.16,1.32.31,1.93-.2-.12-.4-.23-.59-.34-2.27-2.78-3.54-3.61-4.7-3.95-.04-.01-.09,0-.1.05-.02.04,0,.09.04.11.85.49,2.31,1.52,3.64,3.3-1.09-.4-2.18-.56-3.25-.59-.89-1.03-1.46-2.16-1.94-3.12-.23-.46-.45-.88-.66-1.24M42.67,70.95l.25-1.99c1.17-.15,2.41-.27,3.71-.36l-.23,5.76c-.84-1.42-2.15-2.32-3.38-3.17-.12-.08-.23-.16-.35-.25M47.33,39.1c-.01-.23.12-.43.38-.43.23,0,.37.13.37.41l.18,6.2c-.21,0-.42.02-.63.04l-.31-6.22ZM49.56,39.21c0-.44.16-.57.46-.57.31,0,.46.21.43.59l-.07,6.05c-.25,0-.49,0-.75-.01l-.07-6.06ZM51.73,45.33l.19-6.24c0-.28.15-.45.38-.45.26,0,.37.23.36.46l-.31,6.26c-.21-.01-.41-.02-.62-.03M52.7,45.38l.37-6.48c.03-.55-.13-.88-.74-.88-.54,0-.78.27-.8.86l-.15,6.42c-.22-.01-.44-.02-.67-.03l.11-6.43c0-.25-.06-.51-.22-.67-.15-.15-.37-.19-.61-.19s-.48.06-.63.21c-.16.16-.2.4-.2.65l.11,6.41c-.05,0-.1,0-.16,0-.16,0-.33,0-.5.01l-.15-6.39c-.02-.6-.22-.84-.76-.84-.21,0-.47.06-.6.2-.15.16-.2.39-.18.66l.36,6.44c-.22.02-.44.03-.67.06l-.51-8.21h7.78l-.52,8.24c-.22-.02-.45-.03-.67-.05M53.8,36.57c-.28.04-.81.04-1.64.04h-4.33c-.83,0-1.36,0-1.64-.04-.44-.06-.56-.14-.66-.3-.11-.27-.16-.46-.17-.61h9.26c0,.14-.06.33-.16.58-.11.19-.22.27-.67.33M45.26,35.11c-.38,0-.46-.26-.46-.48v-.1c0-.21.16-.51.46-.51h9.52c.27,0,.4.17.4.51v.1c0,.27-.2.48-.45.48h-9.48ZM44.65,31.3c.29-.06.59-.07.81-.04l.08.33c.07.48-.02.71-.33.86l-.17.07-.4-1.22ZM54.39,30.69c-.1,0-.19.07-.21.17l-.13.68c-.06.49-.03,1.02.58,1.32l.47.19c.05.02.09.04.07.17l-.13.36-10.07.02-.13-.38c-.02-.13.02-.15.07-.17l.48-.19c.65-.31.65-.91.58-1.34l-.15-.61c-.02-.09-.11-.16-.2-.17l-1.3-.05c-.4-.01-.45-.09-.49-.21l-.1-.43h12.57l-.1.42c-.03.13-.06.21-.42.22h-1.39ZM55.35,31.3l-.4,1.22-.15-.06c-.31-.15-.39-.37-.33-.86l.07-.38c.21-.02.49,0,.81.07M55.8,29.43h-11.61c-1.78,0-1.85-.04-2.03-.15-.12-.07-.2-.18-.2-.49,0-.23.07-.39.22-.48.18-.12.66-.16,2.96-.16h9.72c2.3,0,2.77.04,2.96.16.15.09.22.25.22.48,0,.32-.07.42-.2.49-.18.11-.25.15-2.03.15M45.01,25.13c-.08.27-.14.55-.14.87,0,.12.01.23.03.35,0,.03,0,.07.01.1.02.08.04.16.06.24.02.06.04.12.06.18.08.2.19.38.32.53-.15.12-.36.19-.61.19-.13,0-.32-.02-.51-.12-.08-.04-.17-.1-.25-.17,0,0-.01-.01-.02-.02-.03-.03-.06-.06-.09-.1,0-.01-.02-.02-.03-.03-.03-.04-.06-.08-.08-.13,0,0-.01-.02-.02-.03-.03-.06-.06-.12-.08-.18,0-.01,0-.03-.01-.05-.02-.05-.03-.11-.05-.17,0-.03-.01-.05-.02-.08-.01-.06-.02-.12-.03-.18,0-.03,0-.05,0-.08,0-.1-.01-.19-.01-.3,0-.96.46-2.12,1.14-2.91-.15.89.12,1.67.32,2.1M46.12,20.43c.67.37,1.25.98,1.67,1.73-.09.28-.2.54-.3.8-.25.62-.5,1.26-.57,2.12-.01.17-.01.32,0,.47,0,.03,0,.05,0,.08,0,.15.03.3.06.44,0,0,0,.02,0,.03.06.3.17.56.33.8.07.11.15.22.24.31,0,0,.01.01.02.02-.21.08-.45.13-.73.13-.79,0-1.25-.59-1.36-1.25-.02-.09-.02-.19-.02-.28,0-.58.14-.88.4-1.41l.03-.05c.82-1.71.9-2.97.25-3.93M52.13,26c0,.12,0,.23-.02.34,0,.04-.01.07-.02.11,0,.06-.02.12-.03.18,0,.04-.02.08-.03.12-.02.05-.03.09-.05.14-.02.03-.03.07-.05.1-.21.39-.6.57-1.18.57-.53,0-.9-.21-1.12-.61-.03-.06-.06-.14-.09-.21,0-.02-.01-.03-.02-.05-.02-.07-.04-.14-.06-.21,0-.04-.01-.09-.02-.13,0-.06-.02-.12-.03-.18-.01-.12-.02-.24-.02-.38,0-.66.23-1.4.45-2.12.14-.46.27-.89.33-1.28.12.18.27.38.45.61.64.84,1.5,1.99,1.5,3.01M51.69,23.61c-.23-.31-.47-.63-.73-.96-.33-.42-.67-.86-1.01-1.34-.02-.03-.06-.04-.1-.03-.04.01-.06.05-.06.09.07.83-.21,1.61-.48,2.36-.24.67-.49,1.36-.49,2.09,0,.13,0,.26.02.38,0,.05.01.09.02.14,0,.07.02.13.04.2.03.14.07.28.12.4.05.13.11.25.17.36-.36-.07-.64-.2-.86-.37-.36-.29-.56-.69-.66-1.12,0,0,0-.02,0-.02-.02-.08-.03-.17-.05-.25,0,0,0,0,0,0,0-.08-.02-.15-.02-.23,0-.02,0-.03,0-.05,0-.08,0-.16,0-.23,0-.61.21-1.21.44-1.85.27-.74.57-1.58.57-2.59,0-1.25-.55-2.12-1.07-2.66,2.58.99,3.92,3.01,4.44,4.95-.11.25-.21.51-.29.77M22.61,32.89l18.17-5.97s.07-.06.06-.1c-.01-.04-.06-.07-.1-.06l-15.95,3.09c.98-1.23,2.05-2.38,3.19-3.44l13.37-1.71s.08-.04.07-.09c0-.05-.04-.08-.08-.08l-10.34-.61c1.17-.86,2.4-1.64,3.69-2.33l7.56,1.01s0,0,.01,0c.04,0,.07-.03.08-.06.01-.04-.01-.09-.05-.1l-4.99-2.11c1.15-.49,2.33-.92,3.54-1.28l2.9,1.83s.03.01.05.01c.02,0,.05,0,.06-.03.03-.03.03-.08,0-.11l-1.55-2.1c1.49-.36,3.02-.62,4.59-.77.72.66,1.2,1.61,1.2,2.47,0,.47-.05.88-.13,1.25-.8-1.13-1.91-1.83-2.82-1.98-.04,0-.08.01-.09.05-.02.03,0,.07.02.1.83.79,1.13,1.56.99,2.56-.1.75-.37,1.31-.63,1.85-.04.09-.08.17-.12.25-.28-.58-.41-1.25.03-2.35.01-.03,0-.07-.02-.1-.03-.02-.07-.03-.1,0-1.3.79-2.2,2.93-2.2,4.37,0,.68.16,1.14.49,1.41-1.13.03-1.35.09-1.55.22-.27.17-.42.47-.42.85,0,.29.05.66.42.87.22.13.36.18,1.28.2l.17.73c.11.39.4.49.73.52l.52,1.59c-.14.09-.3.26-.24.61,0,.01,0,.02,0,.04l.19.54s0,0,0,0c-.15.18-.24.41-.24.64v.1c0,.43.21.74.56.86-.05.29.07.63.21.98.13.23.3.36.51.44l.54,8.55c-.61.07-1.23.15-1.86.23l.41-5.52s-.03-.09-.07-.09c-.05,0-.09.02-.1.06l-1.52,5.73c-.34.05-.69.1-1.03.16-.65.1-1.31.2-1.97.29l3.37-9.83s0-.09-.05-.11c-.04-.02-.09,0-.11.04l-5.76,9.86s0-.07,0-.1c-.05-.6-.44-1.92-1.87-2.71l6.77-10.08s.02-.09-.02-.12c-.03-.03-.09-.02-.12,0l-9.11,9.64c-1.22.09-2.46.74-2.94,2.02-.09.23-.11.62-.11,1.21l-1.18,1.25c-.27-1.06-.71-2.09-1.14-3.05l13.15-12.82s.04-.08,0-.12c-.03-.03-.08-.04-.12-.02l-16.05,11.36c-.21-.61-.44-1.21-.66-1.78-.18-.46-.35-.91-.5-1.35l16.59-10.23s.05-.07.03-.11c-.02-.04-.07-.06-.11-.04l-19.9,8.28c.68-1.61,1.48-3.15,2.4-4.62M18.53,42.74l2.86-1.76c-.44,1.36-.76,2.98-.64,4.61l-2.96,2.09c.12-1.68.37-3.33.74-4.94M18.75,58.15c-.36-1.38-.63-2.79-.8-4.23l1.32-1.29c-.12,1.63.1,3.06.62,4.31l-1.14,1.21ZM24.07,69.25c-1.04-1.4-1.97-2.89-2.78-4.45l1.17-1.74c.06.11.13.23.19.35.33.59.63,1.14.99,1.64.46.66.94,1.18,1.45,1.59-.26-.04-.52-.09-.77-.16-.09-.02-.23-.02-.29.05-.06.07-.03.19,0,.28.18.45.42.88.71,1.3l-.67,1.14ZM24.52,66.97c.7.14,1.46.22,2.2.26.42,1.32,1.41,2.49,3.02,3.05-.11.01-.22.02-.33.03-.43.04-.87.09-1.3.12-1.56-.84-2.92-2.12-3.58-3.47M27.77,70.86c.5-.04,1-.09,1.49-.14.56-.06,1.12-.11,1.68-.15.34.05.68.08,1.06.08.05,0,.1,0,.15,0,.31,0,.68-.04,1.09-.09.42.03.84.09,1.25.17.25.42.55.86.89,1.28-.54.01-1.07.05-1.6.11-.7-.13-1.42-.21-2.39-.26-.04,0-.08.03-.09.08,0,.04.02.09.07.1l.09.02c.56.12,1.05.23,1.5.34,0,.03,0,.07.02.1.39.76.85,1.43,1.38,2.02-2.29-.13-4.58-1.09-6.58-3.66M34.44,78.3c-1.54-.85-3-1.82-4.38-2.89l.5-1.46c1.13.64,2.52,1.06,4.25,1.06.13.13.26.25.4.37l-.78,2.92ZM40.61,80.63c-2.09-.46-3.81-1.96-5.02-4.34.99.34,2.08.37,3.23.4,2.17.05,4.62.1,6.91,2.47v.04c-1.69.18-4.38-.08-6.43-.96-.04-.01-.08,0-.11.04-.02.04-.02.08.02.11,1.4,1.22,3.74,1.51,5.69,1.51.19,0,.37,0,.55-.01-1.03.61-2.86,1.18-4.84.74M47.93,81.49c-.33.11-1.46.5-2.04.65-.67.18-.99.09-1.09-.16-.11-.29-.02-.5.49-.69.3-.12,2.31-.91,2.79-1.1-.13.27-.2.56-.2.86,0,.15.01.3.04.44M50,82.66c-1.05,0-1.67-.65-1.67-1.75,0-.33.09-.64.25-.91.54-.1,2.15-.11,2.83,0,.16.27.25.59.25.92,0,1.11-.61,1.75-1.67,1.75M55.19,81.98c-.09.25-.41.34-1.09.16-.57-.15-1.7-.54-2.04-.65.02-.14.04-.29.04-.44,0-.3-.07-.59-.2-.86.48.19,2.49.98,2.79,1.1.51.19.6.4.5.69M54.9,79.75c1.83-1,4.02-1.55,6.5-1.66.05,0,.08-.04.08-.09,0-.04-.03-.08-.08-.09-1.74-.21-3.77.07-5.73.75.83-.49,1.65-1.18,2.35-2.16,1.59-.56,3.22-.33,4.79-.09.72.11,1.64.14,2.37.17-2.03,2.31-5.9,5.35-10.29,3.16M66.99,77.46l-.41-1.36c1.85-.52,3.32-1.51,4.46-2.68l.31.8c-1.36,1.19-2.81,2.28-4.36,3.24M62.82,75.94c-.4-.06-.8-.12-1.21-.16,1.84-1.21,4.83-2.46,7.49-3.09.04-.01.07-.06.06-.1,0-.05-.05-.07-.09-.07-2.06.24-4.43,1.02-6.45,2.08.31-.42.6-.88.84-1.36,2.19-1.62,5.27-2.45,8.92-2.27-2.29,3.57-5.55,5.29-9.56,4.97M71.73,70.59c-.74-.02-1.46.01-2.15.07.25-.31.49-.63.7-.95,2.07-.81,3.61-1.83,4.57-3.02.03-.03.03-.09,0-.12-.03-.03-.08-.03-.12,0-.45.41-1.09.87-1.88,1.32.49-.65.71-1.4.66-2.25,0-.01,0-.03,0-.04.45-.09.91-.15,1.37-.22.7-.1,1.5-.32,2.18-.49-.88,2.49-2.49,5.08-5.32,5.7M76.6,68.31l-.36-.58c.5-.82.95-1.82,1.34-3.02.03-.09,0-.18-.06-.25-.06-.06-.16-.09-.24-.06-.49.15-1,.25-1.53.34.89-.53,1.65-1.2,2.28-1.93l.96,1.4c-.7,1.43-1.5,2.8-2.4,4.1M74,65.02c-.18.03-.36.06-.55.09-.08-.49-.22-.9-.41-1.34,1.31-.73,2.86-1.82,3.59-2.65.03-.03.03-.09,0-.12-.03-.03-.09-.03-.12,0-.81.79-1.97,1.51-3.67,2.29-.18-.4-.38-.85-.6-1.44.42-.46.95-.86,1.66-1.23.85-.44,1.96-.82,3.16-1.16.86-.25,1.89-.58,2.73-.89-.44,2.19-2.52,5.32-5.79,6.45M81.37,57.66l-1.72-1.78c.48-1.22.81-2.56,1-3.89l1.46,1.37c-.15,1.46-.4,2.9-.74,4.3M82.16,47.1l-1.44-.97c-.03-.37-.06-.76-.11-1.18,0-.09-.03-.24-.11-.26-.09-.03-.15,0-.21.07-.2.22-.4.44-.62.65l-.95-.64c.03-.23.04-.46.05-.7.01-1.08-.23-2.48-1.19-3.97l3.81,2.24c.38,1.54.64,3.13.78,4.75M59.26,27.4l18.41,5.94c.8,1.32,1.5,2.7,2.11,4.13l-19.89-7.96s-.09,0-.11.04c-.02.04,0,.09.03.11l14.92,8.78c.06.92-.15,1.89-.36,2.91-.03.14-.06.29-.09.44l-14.85-10.01s-.09-.02-.12.02c-.03.04-.03.09,0,.12l12.49,11.75c-.03.75-.14,1.54-.24,2.36-.06.43-.11.86-.16,1.3l-1.48-1.53c-.01-.41-.02-.64-.04-.76-.19-1-1.1-1.73-2.56-1.93l-9.41-9.75s-.08-.04-.12,0c-.04.03-.04.08-.02.12l6.89,9.98c-.32.15-.61.35-.86.59-.51.5-.83,1.14-.93,1.85l-5.91-9.66s-.07-.05-.11-.03c-.04.02-.06.07-.04.11l3.84,10.02c-.63-.08-1.27-.17-1.96-.27-.41-.06-.82-.12-1.25-.18l-1.9-6.27s-.05-.07-.1-.06c-.04,0-.07.05-.07.09l.57,6.04c-.68-.08-1.38-.16-2.13-.22l.54-8.57c.22-.08.39-.22.53-.46.13-.31.24-.66.19-.96.33-.13.56-.46.56-.85v-.1c0-.29-.08-.52-.22-.68l.18-.51s0-.03,0-.04c.06-.35-.09-.52-.24-.61l.51-1.58c.37-.02.64-.14.74-.54l.18-.72c.9-.02,1.04-.07,1.26-.2.37-.21.41-.58.41-.87,0-.38-.14-.67-.41-.85-.2-.13-.43-.19-1.61-.22.37-.32.53-.86.53-1.69,0-1.33-.69-2.71-1.81-3.62-.03-.02-.07-.03-.1,0-.03.02-.05.05-.04.08.04.44-.05.88-.21,1.33-.04-.08-.07-.16-.11-.24-.46-.98-.94-2-.55-3.54,0-.04,0-.08-.04-.09-.03-.02-.07-.02-.1,0-.56.5-1.13,1.21-1.6,2.04-.71-1.76-2.12-3.37-4.32-4.23.64-.04,1.27-.06,1.92-.06.94,0,1.87.04,2.79.12l-.47,1.56s0,.08.04.1c.01,0,.03.01.04.01.03,0,.05-.01.07-.03l1.28-1.55c.78.09,1.55.21,2.3.35l-1.17,1.66s-.02.08.01.11c.02.02.04.03.06.03.02,0,.04,0,.05-.02l2.12-1.56c.79.18,1.57.39,2.34.62l-2.59,2.2s-.04.08-.02.11c.02.03.04.04.07.04.01,0,.02,0,.03,0l4.15-1.79c1.02.37,2.01.8,2.98,1.27l-6.14,2.45s-.06.06-.05.11c.01.04.05.06.08.06,0,0,.01,0,.02,0l8.05-1.57s0,0,0,0c1.28.73,2.5,1.56,3.66,2.45l-10.63.69s-.08.04-.08.09.04.08.08.09l12.68.86c1.24,1.14,2.4,2.37,3.46,3.69l-15.94-2.62s-.09.02-.1.06c0,.04.02.09.06.1"/>
  <path d="M46.26,51.8c.42-.02.63-.03,1.05-.06.15,0,.23.07.23.22,0,.1,0,.15,0,.25,0,.15-.07.23-.22.24-.64.03-.96.05-1.6.09-.15,0-.23-.07-.23-.22,0-1.1,0-1.65,0-2.76,0-.15.07-.23.22-.24.13,0,.19,0,.31-.02.14,0,.22.07.22.22,0,.91,0,1.36.02,2.27"/>
  <path d="M49.61,52.44c-.12,0-.18,0-.3,0-.17,0-.24-.05-.31-.21-.42-1.12-.62-1.68-1.02-2.8-.04-.11.03-.22.14-.22.14,0,.22,0,.36,0,.16,0,.23.05.29.21.27.8.41,1.19.7,1.99.28-.8.42-1.2.69-2,.05-.17.12-.22.29-.22.13,0,.19,0,.32,0,.11,0,.18.1.14.21-.39,1.13-.59,1.69-1.01,2.82-.06.17-.13.22-.3.22"/>
  <path d="M52.16,52.45c-.17,0-.25-.01-.41-.02-.1,0-.15-.11-.1-.2.39-.58.57-.86.95-1.44-.33-.55-.49-.83-.81-1.39-.05-.09,0-.19.1-.19.17,0,.26.01.43.02.18,0,.24.05.33.21.18.33.27.49.46.82.19-.31.28-.47.47-.78.09-.16.15-.19.33-.18.16,0,.24.01.4.02.1,0,.15.11.1.2-.33.52-.49.78-.83,1.3.37.61.55.92.93,1.53.05.09,0,.19-.1.19-.18,0-.27-.01-.45-.02-.19,0-.25-.05-.34-.21-.22-.39-.33-.58-.55-.97-.23.37-.34.55-.57.91-.1.16-.16.19-.35.18"/>
  <path d="M40.3,58.87c-.12.02-.19.02-.31.04-.18.03-.26-.01-.33-.17-.49-1.06-.72-1.58-1.17-2.64-.05-.11.02-.22.14-.23.15-.02.23-.03.38-.05.17-.02.25.02.31.17.32.75.48,1.13.81,1.88.27-.83.4-1.25.66-2.08.05-.17.12-.23.3-.26.13-.02.2-.03.33-.05.12-.02.2.07.16.19-.38,1.17-.57,1.76-.97,2.93-.06.17-.13.23-.31.26"/>
  <path d="M43.03,58.53c-.15.01-.23-.06-.24-.21-.01-1.1-.02-1.65-.03-2.75,0-.15.08-.24.23-.25.73-.06,1.09-.09,1.81-.15.15-.01.23.06.23.21,0,.09,0,.14,0,.23,0,.15-.07.23-.22.25-.5.04-.76.06-1.26.11,0,.22,0,.33,0,.55.35-.03.53-.04.88-.07.15-.01.23.06.24.21,0,.08,0,.12,0,.2,0,.15-.07.24-.23.25-.35.03-.53.05-.88.07,0,.25,0,.37.01.62.52-.04.77-.06,1.29-.11.15-.01.23.06.24.21,0,.09,0,.14,0,.23,0,.15-.07.24-.23.25-.75.06-1.12.09-1.87.15"/>
  <path d="M46.92,58.27c-.13,0-.2,0-.34,0-.15,0-.23-.07-.23-.22,0-1.1,0-1.65.01-2.76,0-.15.08-.23.23-.24.42-.01.63-.02,1.05-.03.68-.02,1.12.37,1.14.97,0,.38-.18.69-.52.86.25.46.38.69.64,1.16.05.09,0,.2-.12.21-.16,0-.25,0-.41.01-.19,0-.25-.03-.34-.2-.21-.4-.31-.6-.52-.99-.14,0-.22,0-.36.01,0,.39,0,.59,0,.98,0,.15-.08.23-.23.24M47.63,55.68c-.19,0-.29,0-.48.02,0,.29,0,.43,0,.73.19,0,.29,0,.49-.02.2,0,.35-.16.34-.37,0-.22-.15-.36-.35-.36"/>
  <path d="M50.28,58.21c-.15,0-.23-.08-.23-.23,0-1.1,0-1.66.01-2.76,0-.15.08-.23.23-.23.13,0,.2,0,.33,0,.15,0,.23.08.23.23,0,1.1,0,1.65.01,2.76,0,.15-.08.23-.23.23-.14,0-.21,0-.34,0"/>
  <path d="M53.07,58.28c-.15,0-.23-.09-.23-.24.01-.91.02-1.36.03-2.27-.29-.01-.43-.02-.72-.03-.15,0-.23-.09-.22-.24,0-.1,0-.15,0-.25,0-.15.08-.23.23-.22.88.04,1.32.06,2.21.1.15,0,.23.09.23.24,0,.1,0,.15,0,.25,0,.15-.08.23-.23.22-.29-.01-.43-.02-.72-.03,0,.91,0,1.37-.01,2.27,0,.15-.08.23-.24.22-.14,0-.21,0-.34-.01"/>
  <path d="M55.48,58.41c-.14-.01-.21-.02-.34-.03-.12-.01-.19-.12-.14-.23.49-1.08.72-1.62,1.18-2.7.07-.16.14-.2.31-.19.13.01.19.02.32.03.17.02.24.07.31.25.41,1.16.63,1.74,1.06,2.9.05.12-.03.21-.15.2-.16-.01-.23-.02-.39-.04-.18-.02-.25-.07-.31-.24-.06-.17-.09-.25-.14-.42-.49-.04-.73-.07-1.22-.11-.07.16-.1.23-.16.39-.07.16-.14.2-.32.19M56.97,57.3c-.14-.43-.21-.64-.36-1.07-.16.4-.24.6-.4,1,.3.03.46.04.76.07"/>
  <path d="M41.92,64.42c-.13.01-.19.02-.32.03-.18.02-.26-.02-.34-.18-.49-1.07-.73-1.61-1.2-2.68-.05-.11.02-.22.15-.23.16-.02.24-.03.39-.04.18-.02.26.02.32.18.32.76.49,1.14.83,1.91.28-.82.41-1.24.68-2.06.05-.17.13-.23.31-.25.14-.02.21-.02.34-.04.12-.01.2.08.16.2-.39,1.16-.59,1.75-1,2.91-.06.17-.14.23-.32.25"/>
  <path d="M44.75,64.17c-.16,0-.24-.06-.25-.21-.02-1.1-.03-1.65-.05-2.76,0-.15.08-.24.23-.25.14,0,.21-.01.34-.02.15-.01.24.06.24.22.03,1.1.04,1.65.07,2.76,0,.15-.08.23-.23.24-.14.01-.21.01-.35.02"/>
  <path d="M47.3,64.05c-.14,0-.21,0-.35,0-.16,0-.24-.07-.24-.22,0-1.1,0-1.66,0-2.76,0-.15.08-.23.24-.23.43-.01.65-.02,1.08-.03.7-.02,1.16.38,1.17.97,0,.38-.19.68-.54.85.26.46.39.7.66,1.16.05.09,0,.2-.13.21-.17,0-.25,0-.42,0-.19,0-.26-.03-.35-.2-.22-.4-.32-.59-.53-.99-.15,0-.22,0-.37,0,0,.39,0,.59,0,.98,0,.15-.08.23-.24.24M48.03,61.46c-.2,0-.3,0-.5.01,0,.29,0,.44,0,.73.2,0,.3,0,.5-.01.21,0,.36-.16.35-.37,0-.22-.16-.37-.36-.36"/>
  <path d="M51.21,64.02c-.16,0-.24-.08-.24-.23,0-.91.01-1.37.02-2.28-.3,0-.45,0-.74-.01-.16,0-.23-.08-.23-.23,0-.1,0-.15,0-.25,0-.15.08-.23.24-.23.91.02,1.37.03,2.28.04.15,0,.23.08.23.23,0,.1,0,.15,0,.25,0,.15-.08.23-.23.23-.3,0-.45,0-.74-.02,0,.91,0,1.37,0,2.28,0,.15-.08.23-.24.23-.14,0-.21,0-.35,0"/>
  <path d="M55.25,64.21c-.13,0-.19-.01-.32-.02-.19-.01-.26-.07-.32-.23-.43-1.15-.64-1.72-1.04-2.88-.04-.12.04-.21.16-.21.15,0,.23.01.39.02.18.01.25.07.31.24.28.82.43,1.22.72,2.04.32-.78.48-1.17.79-1.94.06-.16.14-.21.32-.2.14,0,.2.01.34.02.12,0,.2.11.15.23-.45,1.09-.68,1.64-1.15,2.73-.07.16-.15.21-.33.19"/>
  <path d="M60.16,58.34c.2.02.34-.06.35-.2,0-.11-.06-.2-.19-.29-.13-.09-.49-.35-.62-.45-.33-.24-.5-.54-.48-.88.03-.53.49-.91,1.1-.84.29.03.59.15.81.36.09.09.09.21,0,.31-.03.03-.11.13-.14.16-.1.11-.2.11-.32.01-.13-.11-.26-.17-.38-.18-.18-.02-.29.08-.3.2,0,.12.05.19.19.29.12.09.49.35.61.44.34.25.5.55.49.88-.03.59-.51.91-1.15.85-.44-.04-.77-.23-1.01-.47-.11-.12-.11-.23,0-.34.03-.03.13-.13.16-.16.1-.1.21-.09.32,0,.21.19.38.27.56.29"/>
  <path d="M58.52,63.86c.2.02.34-.07.34-.21,0-.11-.06-.19-.19-.29-.13-.09-.48-.35-.61-.44-.33-.24-.49-.54-.47-.88.03-.54.49-.91,1.09-.86.29.03.58.15.8.35.09.09.09.21,0,.31-.03.03-.11.13-.14.16-.1.12-.2.11-.32.02-.13-.1-.26-.16-.37-.17-.18-.02-.29.08-.3.21,0,.12.04.19.19.29.13.09.48.35.6.44.33.24.5.55.48.87-.03.59-.51.92-1.14.86-.43-.04-.76-.22-.99-.46-.11-.12-.11-.23,0-.34.03-.03.13-.13.16-.16.1-.11.2-.1.32,0,.2.19.38.27.55.29"/>
  <path d="M7.77,54.66c0,.17-.09.25-.25.25h-.37c-.17,0-.25-.09-.25-.25v-2.41l-.36.09c-.15.04-.24-.03-.24-.19v-.27c0-.19.06-.27.24-.33l.3-.1c.16-.05.27-.08.44-.08h.25c.17,0,.25.09.25.25v3.04Z"/>
  <path d="M10.31,54.99c-.88,0-1.39-.5-1.39-1.05,0-.36.2-.66.56-.85-.33-.17-.5-.46-.5-.8,0-.53.49-1,1.33-1s1.32.47,1.32,1c0,.34-.18.62-.5.8.36.18.56.49.56.85,0,.56-.5,1.05-1.39,1.05M10.31,53.45c-.35,0-.54.2-.54.42s.19.42.54.42.54-.2.54-.42-.19-.42-.54-.42M9.83,52.37c0,.2.16.39.48.39s.48-.19.48-.39c0-.21-.17-.39-.48-.39s-.48.18-.48.39"/>
  <path d="M88.59,54.91l-.14-.26c-.07-.15-.03-.26.11-.33.49-.24.83-.48,1-.81-.17.13-.37.2-.6.2-.71,0-1.16-.47-1.16-1.16s.53-1.25,1.43-1.25c.79,0,1.37.53,1.37,1.38,0,1.16-.65,1.92-1.66,2.37-.16.07-.27.02-.35-.13M88.65,52.54c0,.29.21.51.54.51s.54-.22.54-.52-.22-.51-.54-.51-.54.22-.54.52"/>
  <path d="M92.81,54.99c-.89,0-1.39-.5-1.39-1.05,0-.36.2-.66.56-.85-.32-.17-.5-.46-.5-.8,0-.53.49-1,1.33-1s1.32.47,1.32,1c0,.34-.18.62-.5.8.36.18.56.49.56.85,0,.56-.5,1.05-1.39,1.05M92.81,53.45c-.35,0-.54.2-.54.42s.19.42.54.42.54-.2.54-.42-.19-.42-.54-.42M92.33,52.37c0,.2.16.39.48.39s.48-.19.48-.39c0-.21-.17-.39-.48-.39s-.48.18-.48.39"/>
  <path d="M49.35,30.65l-2.25.04c-.06,0-.12.03-.16.07-.04.04-.06.1-.06.16,0,.03.04.68.15,1.1.15.57.59.88,1.23.88s1.09-.34,1.18-.94c.07-.42.12-1.06.12-1.08,0-.06-.02-.12-.06-.17-.04-.04-.1-.07-.16-.07M49.02,31.9c-.06.38-.31.57-.75.57s-.71-.18-.81-.56c-.04-.17-.08-.38-.1-.58.39-.21,1.26-.28,1.74-.07-.02.2-.05.44-.08.63"/>
  <path d="M52.9,30.66h-2.28c-.06,0-.12.02-.16.06-.04.05-.06.11-.06.17v.18c.05.46.06.48.12.91.09.59.52.93,1.16.93h.03c.65-.01,1.09-.33,1.24-.91.11-.42.15-1.09.15-1.12,0-.06-.02-.12-.06-.16-.04-.04-.1-.07-.16-.07M52.54,31.9c-.1.38-.37.57-.82.58-.43.01-.7-.18-.75-.56-.05-.33-.06-.41-.08-.64.48-.22,1.37-.16,1.76.04-.02.19-.06.41-.1.58"/>
  <path d="M25.52,79.37l.2-.23c-.47-.39-.98-.83-1.44-1.27l-.21.22c.21.37.18.8-.55,1.57l-1.35,1.43c-.87.91-2.02,1.08-2.98.12-.88-.88-.73-1.93.23-2.86l1.68-1.62c.68-.65.83-.63,1.22-.36l.22-.21c-.58-.6-1.17-1.28-1.7-1.91l-.24.2c.24.41.23.57-.46,1.21l-1.78,1.64c-1.1,1.01-1.47,2.66.05,4.19,1.54,1.54,3.17,1.16,4.2.06l1.39-1.48c.73-.77,1.14-.88,1.53-.7"/>
  <path d="M32.24,83.88l.14-.27c-.57-.3-1.13-.61-1.67-.94l-.16.26c.28.31.34.73-.2,1.64l-1.18,1.98-1.13-5.21c-.09-.43-.16-.53-.28-.61-.28-.2-.89-.65-1.31-.99l-.18.23c.18.18.2.39.29,1.07.03.19.04.38-.11.61l-1.81,2.59c-.61.87-.97,1-1.4.86l-.19.24c.52.4,1.05.79,1.59,1.16l.18-.25c-.27-.34-.3-.68.35-1.62l1.6-2.34,1.38,6.42.37.19,2.39-4.03c.54-.91.91-1.08,1.34-1"/>
  <path d="M33.69,84.59c.41.29.44.43.06,1.28l-1.46,3.28c-.38.86-.49.93-.98.84l-.12.28c.79.37,1.6.72,2.42,1.04l.12-.28c-.41-.29-.42-.42-.06-1.28l1.39-3.31c.36-.87.49-.93.98-.84l.11-.28c-.79-.31-1.57-.65-2.34-1.01l-.13.28Z"/>
  <path d="M41.98,87.4c.48.24.61.57.18,1.08l-2.5,3-.75-3.92c-.09-.48.06-.8.5-.8l.09-.29c-.8-.23-1.68-.52-2.58-.85l-.11.29c.31.25.38.52.56,1.36l1.25,5.87.4.1,3.77-4.5c.55-.65.92-.91,1.29-.96l.04-.3c-.68-.1-1.37-.24-2.08-.38l-.07.29Z"/>
  <path d="M49.62,93.52c-.37.23-1.03.33-2.17.26-.84-.05-.89-.07-.96-.15-.06-.06-.09-.16-.07-.35.04-.63.11-1.52.18-2.35,1.22.08,1.56.15,1.74.24.3.15.37.32.43.56h.32s.05-1.88.05-1.88h-.32c-.08.23-.17.41-.46.5-.35.1-.75.09-1.71,0,.06-.67.12-1.24.15-1.43.03-.18.06-.33.14-.4.08-.07.18-.09.92-.05,1.33.08,1.7.21,2.45.82l.23-.16-.44-1.2c-.72,0-1.57-.02-2.44-.07-1.03-.06-1.99-.15-2.76-.26l-.05.31c.46.14.55.28.47,1.21l-.34,3.56c-.08.93-.2,1.04-.68,1.1l-.03.3c.8.1,2.13.23,3,.28.92.06,2.47.1,3.11.08l.42-1.67-.28-.11c-.28.35-.55.64-.9.86"/>
  <path d="M59.1,93.04c-.68.11-1.3-.84-2.35-1.96,1.1-.39,1.66-1.13,1.54-2.02-.15-1.14-1.1-1.81-3.08-1.49-1.14.19-2.41.27-3.15.31l.02.31c.48.05.59.17.69,1.1l.34,3.57c.1.93,0,1.05-.46,1.2l.03.3c.6-.04,1.74-.13,2.65-.24l-.03-.3c-.47-.05-.58-.15-.69-1.08l-.13-1.16c.22-.04.45-.07.68-.1,1.59,1.72,2.28,2.5,3.57,2.3.55-.08.91-.4,1.09-.83l-.26-.17c-.13.14-.24.22-.44.25M55.53,90.83c-.4.07-.79.11-1.13.12l-.3-2.61c.27-.04.57-.09.87-.13,1.17-.16,1.74.29,1.87,1.14.13.8-.31,1.33-1.31,1.49"/>
  <path d="M63.2,88.29c-1.39.16-2.17.29-2.43-.5-.13-.41.12-.99.99-1.27,1.04-.34,1.85-.02,2.74.53l.23-.2-.95-1.4-.17.02c-.05.05-.13.13-.24.16-.49.16-.82,0-1.76.3-1.27.42-2.14,1.5-1.75,2.69.47,1.44,1.88,1.3,3.16,1.15,1.36-.16,2.1-.3,2.36.48.15.46-.15,1.08-1.05,1.38-1.35.44-2.4.17-3.47-.6l-.23.19.93,1.62h.17c.08-.11.2-.21.36-.26.64-.21,1.1.05,2.4-.38,1.15-.38,2.25-1.42,1.81-2.79-.45-1.38-1.82-1.27-3.09-1.12"/>
  <path d="M69.65,88.22l-1.62-3.21c-.42-.84-.39-.98,0-1.29l-.14-.27c-.75.4-1.51.78-2.29,1.13l.13.28c.48-.12.61-.06,1.02.79l1.56,3.24c.41.84.39.98,0,1.29l.13.27c.8-.37,1.58-.75,2.37-1.17l-.13-.27c-.48.12-.59.05-1.02-.79"/>
  <path d="M74.97,84.97l-2.25-3.2c-.28-.4-.26-.51.05-.72.51-.35,1.24-.43,2.25-.2l.16-.26-1.41-1.03c-.66.53-1.34,1.05-2.29,1.7-.95.65-1.67,1.1-2.4,1.52l.46,1.68.3-.06c.15-1.03.48-1.68.98-2.03.31-.21.42-.19.69.21l2.19,3.24c.53.78.53.91.19,1.27l.17.25c.74-.48,1.46-.97,2.17-1.5l-.17-.25c-.46.19-.58.14-1.12-.63"/>
  <path d="M81.1,79.65l-1.08-1.04-.32-2.75c-.11-.99-.13-1.44.01-1.78l-.24-.19c-.44.53-.95,1.13-1.44,1.67l.22.21c.42-.31.76-.1.84.56l.26,2.1-2.22-.32c-.57-.09-.78-.32-.51-.66l-.21-.22c-.61.59-1.38,1.3-2.1,1.89l.19.24c.4-.09.64-.1,1.21-.02l3.39.45.93.95c.66.66.69.79.43,1.21l.22.21c.63-.61,1.25-1.23,1.85-1.88l-.22-.21c-.41.27-.54.24-1.22-.41"/>
  <path d="M10.83,31.13c.18-.05.38-.07.63.06l2.78,1.46c.94.49,1.13.86,1.06,1.28l.28.13c.28-.58.56-1.16.86-1.73l-.27-.14c-.3.3-.72.38-1.65-.12l-2.54-1.35,6.32-1.54.23-.34-3.97-2.48c-.9-.57-1.04-.92-.92-1.35l-.25-.17c-.37.54-.74,1.09-1.08,1.64l.25.17c.32-.28.66-.33,1.63.27l2.11,1.29-5.29,1.24c-.43.11-.5.2-.57.32-.16.29-.63,1.24-.83,1.71l.28.13c.13-.19.31-.3.94-.47"/>
  <path d="M16.98,25.16c1.39,1.25,3.51,1.23,4.91-.34,1.4-1.56,1.2-3.67-.19-4.92-1.39-1.25-3.51-1.22-4.91.34-1.4,1.56-1.2,3.67.19,4.92M17.21,20.61c.8-.88,2.16-.82,3.56.43,1.32,1.18,1.52,2.49.7,3.4-.8.88-2.16.82-3.56-.43-1.32-1.19-1.52-2.49-.7-3.4"/>
  <path d="M22.37,17.12l2.24,2.8c.58.74.58.9.27,1.27l.21.23c.57-.49,1.25-1.04,1.97-1.6l-.18-.25c-.42.22-.58.2-1.14-.55l-.7-.92c.16-.14.33-.28.51-.42,2.26.74,3.24,1.13,4.32.38.46-.32.66-.8.65-1.26l-.32-.05c-.05.19-.11.31-.28.43-.61.43-1.68-.16-3.14-.65.78-.85.92-1.72.38-2.44-.64-.86-1.76-1.17-3.64.22-.76.56-1.95,1.54-2.51,2.01l.19.24c.44-.22.59-.2,1.17.54M23.78,14.89c.95-.7,1.69-.59,2.21.1.49.66.38,1.32-.42,1.94-.31.25-.63.47-.92.67l-1.6-2.11c.21-.19.47-.41.74-.61"/>
  <path d="M28.38,13.21c.22-1.02.6-1.64,1.14-1.97.36-.21.47-.18.69.25.63,1.2,1.67,3.32,1.87,3.78.24.57.17.8-.19,1.06l.14.27c.75-.4,1.67-.85,2.45-1.2l-.13-.28c-.43.13-.66.04-.96-.5-.25-.44-1.29-2.56-1.85-3.79-.21-.44-.16-.55.23-.7.58-.23,1.31-.15,2.25.29l.2-.21-1.13-1.3c-.91.38-1.81.78-2.71,1.23s-1.78.91-2.63,1.4l.34,1.69.29-.03Z"/>
  <path d="M35.8,9.47l1.08,3.42c.28.9.21,1.05-.2,1.29l.11.3c.77-.28,1.63-.57,2.43-.8l-.09-.29c-.47.05-.62-.02-.88-.92l-.5-1.68c.94-.32,2.05-.62,3.03-.81l.41,1.7c.23.91.14,1.04-.3,1.24l.07.3c.8-.2,1.7-.37,2.5-.52l-.06-.31c-.48,0-.61-.1-.82-1.01l-.78-3.5c-.21-.91-.14-1.04.3-1.24l-.06-.3c-.8.14-1.77.35-2.59.55l.07.3c.47,0,.6.08.81.99l.28,1.16c-1.01.3-2.04.57-3.06.82l-.33-1.14c-.27-.9-.21-1.03.21-1.27l-.09-.29c-.82.24-1.76.54-2.52.82l.1.29c.47-.05.6.03.88.92"/>
  <path d="M45.1,7.36l.32,3.57c.08.93,0,1.07-.47,1.21l.04.31c.78-.1,1.74-.19,2.77-.25.9-.05,1.74-.09,2.68-.06l.57-1.67-.28-.11c-.31.35-.62.64-.99.86-.34.19-.71.3-1.8.36-.74.04-.84.02-.92-.05-.07-.07-.11-.22-.13-.4-.04-.27-.13-1.25-.21-2.29.97-.1,1.38-.09,1.74,0,.29.1.38.27.46.51h.32s-.05-1.9-.05-1.9h-.32c-.06.26-.13.43-.43.57-.19.09-.51.15-1.76.23-.05-.55-.09-1.07-.11-1.49-.01-.19.02-.29.08-.35.07-.07.12-.09.78-.13,1.46-.08,2.1.02,2.97.68l.22-.19-.58-1.16c-.81,0-1.69.03-2.61.08-.87.05-2.2.17-3,.27l.03.3c.48.06.6.17.68,1.1"/>
  <path d="M53.47,11.99c-.5-.18-.67-.49-.3-1.05l.51-.79c.41.05.83.1,1.26.15.44.06.89.13,1.35.21l.31.96c.15.47.03.8-.41.86l-.05.3c.82.14,1.73.32,2.66.54l.08-.3c-.34-.21-.44-.47-.72-1.29l-1.72-5.09c-.11-.35-.17-.43-.38-.45-.58-.08-1.14-.15-1.66-.2l-.03.29c.22.06.37.12.51.27.23.24.25.34.13.52l-2.5,3.81c-.46.71-.8,1.01-1.17,1.1v.31c.68.02,1.38.08,2.1.14l.03-.3ZM55.35,7.58l.72,2.28c-.34-.04-.68-.07-1.03-.12-.34-.04-.66-.1-1-.15l1.31-2Z"/>
  <path d="M60.31,13.32c.63.21.85.67,2.03,1.07,1.14.38,2.66.19,3.11-1.17.46-1.4-.73-2.13-1.85-2.78-1.2-.69-1.88-1.03-1.62-1.81.14-.41.69-.72,1.58-.43,1.05.35,1.52,1.08,1.91,2.06l.3-.02.07-1.69-.15-.09c-.07.01-.18.02-.29-.01-.49-.16-.67-.5-1.62-.81-1.28-.43-2.63-.08-3.03,1.12-.46,1.39.7,2.13,1.82,2.76,1.21.68,1.92,1.03,1.65,1.83-.15.46-.76.78-1.66.48-1.25-.41-1.91-1.24-2.32-2.49h-.3s-.21,1.87-.21,1.87l.14.09c.12-.03.28-.04.43.01"/>
  <path d="M68.99,16.91c-.35-.28-.42-.51-.16-1.07.21-.46,1.32-2.54,1.99-3.72.24-.43.35-.45.7-.23.53.34.89.97,1.08,2l.29.04.39-1.68c-.84-.51-1.7-1.01-2.58-1.48-.89-.47-1.78-.9-2.68-1.31l-1.17,1.26.2.22c.96-.42,1.68-.47,2.26-.23.38.16.42.27.2.71-.6,1.21-1.71,3.3-1.97,3.73-.32.53-.54.6-.97.46l-.13.27c.76.38,1.67.86,2.41,1.28l.15-.26Z"/>
  <path d="M72.32,17.66c-.56.75-.71.8-1.15.6l-.17.26c.65.43,1.43,1,2.25,1.64.71.56,1.37,1.08,2.05,1.73l1.53-.87-.14-.26c-.46.06-.89.08-1.31,0-.38-.08-.73-.24-1.59-.91-.59-.46-.65-.54-.66-.65,0-.1.06-.24.16-.39.15-.23.73-1.03,1.34-1.86.79.56,1.1.84,1.31,1.14.15.27.11.46,0,.69l.25.21,1.22-1.45-.25-.21c-.21.15-.37.23-.7.14-.2-.06-.49-.23-1.47-.99.32-.44.64-.86.9-1.19.12-.15.2-.2.29-.21.1-.01.15,0,.67.41,1.16.9,1.56,1.4,1.79,2.47h.29s.33-1.24.33-1.24c-.6-.54-1.29-1.1-2.01-1.66-.68-.54-1.76-1.33-2.43-1.78l-.18.24c.32.36.34.52-.22,1.28l-2.11,2.89Z"/>
  <path d="M76.75,22.82l-.22.22c.53.53,1.14,1.16,1.75,1.84l.23-.2c-.25-.4-.24-.56.46-1.18l.86-.77c.15.15.3.31.46.48-.62,2.27-.94,3.26-.1,4.27.35.43.83.59,1.29.52l.02-.31c-.19-.04-.32-.09-.44-.25-.47-.55.05-1.62.45-3.09.91.72,1.79.8,2.49.2.81-.7,1.03-1.85-.5-3.61-.62-.71-1.68-1.83-2.2-2.35l-.22.21c.25.42.24.57-.45,1.2l-2.62,2.45c-.69.63-.85.65-1.24.37M82.27,20.55c.21.2.45.44.66.69.77.89.72,1.64.06,2.21-.62.54-1.28.48-1.97-.27-.27-.29-.52-.6-.74-.86l1.98-1.76Z"/>
  <path d="M81.58,28.65l-.25.17c.36.54.71,1.08,1.03,1.63l.26-.15c-.1-.41.05-.81.96-1.36l2.47-1.48-1.94,6.21.17.37,4.17-2.12c.95-.48,1.33-.42,1.63-.09l.28-.12c-.27-.6-.55-1.19-.86-1.77l-.27.13c.08.42-.06.73-1.07,1.26l-2.2,1.14,1.66-5.18c.13-.42.09-.54.02-.66-.17-.28-.74-1.18-1.03-1.59l-.25.17c.09.21.1.42-.08,1.05-.05.18-.14.36-.37.51l-2.69,1.63c-.9.55-1.32.52-1.65.25"/>
</svg>