<?xml version="1.0" encoding="UTF-8"?>
<svg id="Layer_1" data-name="Layer 1" xmlns="http://www.w3.org/2000/svg" viewBox="0 0 100 100">
  <path d="M0,0v100h100V0H0ZM57.78,28.04c1.5-1.59,3.01-3.9,4.06-5.82.15-.28.39-.97.52-1.14.05-.06.17-.13.24-.11.42.11,1.75,4.12,1.91,4.74.58,2.14,1.21,6.04.27,8.08-.57,1.23-3.83,2.46-5.08,3.12-1.91,1.01-3.73,2.23-5.29,3.71-2.52,2.39-4.27,5.66-5.19,9-.07.23-.36,1.76-.48,1.77l-1-2.93c-2-6.66,1.31-12.9,6.22-17.23,1.25-1.1,2.67-1.97,3.82-3.19ZM52.17,14.44c.25.1.79,1.31.91,1.61.82,1.99,1.53,4.55,1.96,6.66.22,1.11.65,3.39.45,4.45-.09.48-1.77,1.63-2.2,2-6.34,5.53-10.37,12.38-7.24,20.98.1.26.77,1.68.68,1.8-.26.14-.42-.16-.61-.27-6.55-4.04-10.92-9.83-7.27-17.67,3.43-7.38,10.22-11.56,13.18-19.42.02-.06.01-.19.14-.14ZM29.61,45.15c-1.29-3.04-1.01-7.16.49-10.1,1.9-3.72,4.69-7.11,5.61-11.36.03-.16.1-.98.21-.98.13.12.26.18.38.32.37.49.81,1.56,1.07,2.15.43.96,1.53,3.55,1.53,4.5,0,.47-.73,1.35-.99,1.81-4.38,7.75-2.68,14.8,4.54,19.81.23.16,1.54.91,1.56,1.03l-.12.16c-5.49-.09-11.95-1.85-14.28-7.35ZM48.63,89.56c-.25,1.12-2.01,1.13-2.23-.14-.61-3.55-.59-7.48-1.13-11.07-.67-5.78-1.34-11.55-1.89-17.35h8.79l.09.12-3.64,28.45ZM55.29,58.86l-.11.11h-15.03v-4.42h15.14v4.31ZM71.41,31.87c-.59,10.35-5.16,19.29-16.37,20.51-.55.06-4.16.28-4.31.07.65-4.96,3.39-9.48,7.45-12.36,1.74-1.23,3.61-1.8,5.42-2.85,2.62-1.51,5.19-3.73,6.78-6.33.3-.49.56-1.25.82-1.63.06-.08.08-.14.2-.11.03.18.07.34.07.52.03.59-.04,1.57-.07,2.18Z"/>
</svg>