<?xml version="1.0" encoding="UTF-8"?>
<svg id="Layer_1" xmlns="http://www.w3.org/2000/svg" version="1.1" viewBox="0 0 100 100">
  <!-- Generator: Adobe Illustrator 29.1.0, SVG Export Plug-In . SVG Version: 2.1.0 Build 142)  -->
  <path d="M61.84,67.56c-2.89,5.56-4.06,7.54-7.71,7.68-3.65.15-3.23-1.76-3.23-1.76,0,0,4.47-1.02,4.54-7.75,0,0-2-2.34-5.37-2.34s-5.37,2.34-5.37,2.34c.07,6.73,4.55,7.75,4.55,7.75,0,0,.41,1.91-3.24,1.76-3.65-.14-4.82-2.12-7.71-7.68-1.12-2.16-2.02-2.83-2.71-2.84,2.58,4.49,4.25,10.12,4.63,11.42.52,1.56,1,3.2,1.4,4.89,1.86,7.98,8.46,8.56,8.46,8.56,0,0,6.61-.58,8.47-8.56.42-1.81.94-3.57,1.5-5.22.51-1.74,2.13-6.9,4.53-11.08-.69,0-1.6.67-2.73,2.84ZM46.49,66.55c.53-.93,2.06-1.58,3.51-1.58s2.97.65,3.51,1.58c-.79-.66-2.22-1.08-3.51-1.08s-2.72.42-3.51,1.08ZM50,80.21c.97,0,.4-2.42,3.62-2.42-.06,2.59-1.94,4.28-3.62,4.33-1.69-.06-3.57-1.74-3.63-4.33,3.23,0,2.65,2.42,3.63,2.42ZM54.39,84.94c-2.61.77-2.29,1.19-4.39,1.29-2.1-.1-1.78-.52-4.4-1.29-2.55-1.01-2.84-5.41-1.07-6.77-.77,2.91,1.94,5.63,1.96,5.56.09-.58.66-.78.66-.78.01,0,.5,1.67,2.84,1.72,2.34-.06,2.83-1.72,2.85-1.72,0,0,.56.2.65.78.02.07,2.73-2.65,1.97-5.56,1.76,1.36,1.47,5.75-1.08,6.77Z"/>
  <path d="M89.72,46.97h0c-2.3-3.9-5.15-7.31-6.69-9.06l1.25-.66-.47-1.08c-1.12-2.55-2.94-5.19-3.53-6.02C76.98,7.45,66.67.78,66.23.51l-.82-.51-.7.66c-5.21,4.79-7.4,11.36-8.1,13.95-2.68-.23-6.38-.4-6.56-.41h-.1c-.18,0-3.87.18-6.56.41-.7-2.6-2.89-9.16-8.09-13.95l-.71-.66-.82.51c-.44.27-10.75,6.94-14.06,29.64-.58.83-2.41,3.47-3.53,6.02l-.47,1.08,1.25.66c-1.54,1.75-4.39,5.16-6.68,9.06l-.27.45.14.51c.17.66,4.31,16.25,10.47,27.01l1.42,2.47,1.04-3.2c2.3,3.71,7.23,10.68,14,14.85.82,1.94,4.65,9.78,12.75,10.92l.18.02.16-.02c8.11-1.14,11.93-8.98,12.75-10.92,6.77-4.17,11.7-11.14,14-14.85l1.03,3.2,1.42-2.47c6.17-10.76,10.31-26.35,10.48-27.01l.13-.51-.26-.45ZM67.62,74.66c1.2-4.24,3.11-8.92,3.22-9.21-6.25,4.54-10.01,14.29-11.62,19.46-2.48,7.9-9.16,7.7-9.16,7.7,0,0-6.68.2-9.16-7.7-1.62-5.17-5.37-14.92-11.63-19.46.11.29,2.03,4.97,3.23,9.21,0,0-4.2-2.71-8.68-11.48l-1.03,2.56s-3.52-8.27-5.37-16.18l5.58-.72-3.38-2.2,3.38-2.85s2.48.29,5.99,1.53c0,0,.93,5.11,3.75,8.26,0,0-1.2-5.69-1-10.23,0,0,3.93-.73,6.75-4.47l-1.03-.51s1.17-2.05,2.55-3.73c3.02,1.17,5.09,4.03,5.09,4.03.62,9.07-1.72,10.75-1.72,10.75-2.48-5.71-5.37-7.02-5.37-7.02l.54,1.76c-2.27-.37-4.46-.08-4.46-.08,0,0,.2,4.61,5.98,6.3,0,0-.14,3.48.56,6.63,0,0,2.54-4.08,6.74-7.07,0,0,.58-12.42,2.64-22,1.03,4.79,1.72,10.29,2.14,14.59.43,4.31.59,7.41.59,7.41,4.2,2.99,6.76,7.07,6.76,7.07.69-3.15.55-6.63.55-6.63,5.78-1.69,5.98-6.3,5.98-6.3,0,0-2.2-.29-4.47.08l.55-1.76s-2.89,1.31-5.37,7.02c0,0-2.34-1.68-1.72-10.75,0,0,2.07-2.86,5.09-4.02,1.38,1.67,2.55,3.73,2.55,3.73l-1.03.5c2.82,3.74,6.75,4.47,6.75,4.47.2,4.54-1.01,10.23-1.01,10.23,2.82-3.14,3.76-8.26,3.76-8.26,3.51-1.24,5.99-1.53,5.99-1.53l3.38,2.85-3.38,2.2,5.58.72c-1.86,7.91-5.37,16.18-5.37,16.18l-1.03-2.56c-4.48,8.77-8.68,11.48-8.68,11.48ZM34.15,6.2h0c5.23,4.68,6.76,13.38,6.76,13.38l-1.66,1.03c.96,0,3.1.29,3.1.29,0,0-5.24,2.63-10.06,7.61,0,0,.56-3.73,1.73-5.93l-1.66.23s1.03-3.37,3.58-6.96c0,0-.21-3.87-2-6.65,0,0-3.51,4.6-5.91,10.01-2.4,5.41-3.93,9.3-3.93,9.3,2.13-16.83,10.05-22.31,10.05-22.31ZM38.66,47.3c.29.09.53.06.71-.01-.25-.37-.42-.78-.54-1.13.55.2,1.18.5,1.81.97,0,0-.47,1.72-2.28,1.18-1.81-.54-1.34-2.53-1.34-2.53,0,0,.34.01.87.11-.03.17-.17,1.13.77,1.41ZM61.45,47.3c.95-.28.81-1.24.78-1.41.53-.1.86-.11.86-.11,0,0,.48,1.99-1.33,2.53-1.82.54-2.29-1.18-2.29-1.18.63-.47,1.26-.77,1.82-.97-.12.35-.29.76-.54,1.13.18.08.41.1.7.01ZM59.22,19.58s1.51-8.7,6.75-13.38c0,0,7.91,5.48,10.05,22.31,0,0-1.53-3.89-3.93-9.3-2.4-5.41-5.91-10.02-5.91-10.02-1.8,2.79-2,6.66-2,6.66,2.54,3.59,3.57,6.96,3.57,6.96l-1.64-.22c1.16,2.19,1.71,5.92,1.71,5.92-4.81-4.98-10.05-7.61-10.05-7.61,0,0,2.14-.29,3.1-.29l-1.65-1.03Z"/>
  <path d="M61.84,67.56c-2.89,5.56-4.06,7.54-7.71,7.68-3.65.15-3.23-1.76-3.23-1.76,0,0,4.47-1.02,4.54-7.75,0,0-2-2.34-5.37-2.34s-5.37,2.34-5.37,2.34c.07,6.73,4.55,7.75,4.55,7.75,0,0,.41,1.91-3.24,1.76-3.65-.14-4.82-2.12-7.71-7.68-1.12-2.16-2.02-2.83-2.71-2.84,2.58,4.49,4.25,10.12,4.63,11.42.52,1.56,1,3.2,1.4,4.89,1.86,7.98,8.46,8.56,8.46,8.56,0,0,6.61-.58,8.47-8.56.42-1.81.94-3.57,1.5-5.22.51-1.74,2.13-6.9,4.53-11.08-.69,0-1.6.67-2.73,2.84ZM46.49,66.55c.53-.93,2.06-1.58,3.51-1.58s2.97.65,3.51,1.58c-.79-.66-2.22-1.08-3.51-1.08s-2.72.42-3.51,1.08ZM50,80.21c.97,0,.4-2.42,3.62-2.42-.06,2.59-1.94,4.28-3.62,4.33-1.69-.06-3.57-1.74-3.63-4.33,3.23,0,2.65,2.42,3.63,2.42ZM54.39,84.94c-2.61.77-2.29,1.19-4.39,1.29-2.1-.1-1.78-.52-4.4-1.29-2.55-1.01-2.84-5.41-1.07-6.77-.77,2.91,1.94,5.63,1.96,5.56.09-.58.66-.78.66-.78.01,0,.5,1.67,2.84,1.72,2.34-.06,2.83-1.72,2.85-1.72,0,0,.56.2.65.78.02.07,2.73-2.65,1.97-5.56,1.76,1.36,1.47,5.75-1.08,6.77Z"/>
  <path d="M61.84,67.56c-2.89,5.56-4.06,7.54-7.71,7.68-3.65.15-3.23-1.76-3.23-1.76,0,0,4.47-1.02,4.54-7.75,0,0-2-2.34-5.37-2.34s-5.37,2.34-5.37,2.34c.07,6.73,4.55,7.75,4.55,7.75,0,0,.41,1.91-3.24,1.76-3.65-.14-4.82-2.12-7.71-7.68-1.12-2.16-2.02-2.83-2.71-2.84,2.58,4.49,4.25,10.12,4.63,11.42.52,1.56,1,3.2,1.4,4.89,1.86,7.98,8.46,8.56,8.46,8.56,0,0,6.61-.58,8.47-8.56.42-1.81.94-3.57,1.5-5.22.51-1.74,2.13-6.9,4.53-11.08-.69,0-1.6.67-2.73,2.84ZM46.49,66.55c.53-.93,2.06-1.58,3.51-1.58s2.97.65,3.51,1.58c-.79-.66-2.22-1.08-3.51-1.08s-2.72.42-3.51,1.08ZM50,80.21c.97,0,.4-2.42,3.62-2.42-.06,2.59-1.94,4.28-3.62,4.33-1.69-.06-3.57-1.74-3.63-4.33,3.23,0,2.65,2.42,3.63,2.42ZM54.39,84.94c-2.61.77-2.29,1.19-4.39,1.29-2.1-.1-1.78-.52-4.4-1.29-2.55-1.01-2.84-5.41-1.07-6.77-.77,2.91,1.94,5.63,1.96,5.56.09-.58.66-.78.66-.78.01,0,.5,1.67,2.84,1.72,2.34-.06,2.83-1.72,2.85-1.72,0,0,.56.2.65.78.02.07,2.73-2.65,1.97-5.56,1.76,1.36,1.47,5.75-1.08,6.77Z"/>
  <path d="M61.84,67.56c-2.89,5.56-4.06,7.54-7.71,7.68-3.65.15-3.23-1.76-3.23-1.76,0,0,4.47-1.02,4.54-7.75,0,0-2-2.34-5.37-2.34s-5.37,2.34-5.37,2.34c.07,6.73,4.55,7.75,4.55,7.75,0,0,.41,1.91-3.24,1.76-3.65-.14-4.82-2.12-7.71-7.68-1.12-2.16-2.02-2.83-2.71-2.84,2.58,4.49,4.25,10.12,4.63,11.42.52,1.56,1,3.2,1.4,4.89,1.86,7.98,8.46,8.56,8.46,8.56,0,0,6.61-.58,8.47-8.56.42-1.81.94-3.57,1.5-5.22.51-1.74,2.13-6.9,4.53-11.08-.69,0-1.6.67-2.73,2.84ZM46.49,66.55c.53-.93,2.06-1.58,3.51-1.58s2.97.65,3.51,1.58c-.79-.66-2.22-1.08-3.51-1.08s-2.72.42-3.51,1.08ZM50,80.21c.97,0,.4-2.42,3.62-2.42-.06,2.59-1.94,4.28-3.62,4.33-1.69-.06-3.57-1.74-3.63-4.33,3.23,0,2.65,2.42,3.63,2.42ZM54.39,84.94c-2.61.77-2.29,1.19-4.39,1.29-2.1-.1-1.78-.52-4.4-1.29-2.55-1.01-2.84-5.41-1.07-6.77-.77,2.91,1.94,5.63,1.96,5.56.09-.58.66-.78.66-.78.01,0,.5,1.67,2.84,1.72,2.34-.06,2.83-1.72,2.85-1.72,0,0,.56.2.65.78.02.07,2.73-2.65,1.97-5.56,1.76,1.36,1.47,5.75-1.08,6.77Z"/>
</svg>