<?xml version="1.0" encoding="UTF-8"?>
<svg id="Layer_1" xmlns="http://www.w3.org/2000/svg" version="1.1" viewBox="0 0 100 100">
  <!-- Generator: Adobe Illustrator 29.1.0, SVG Export Plug-In . SVG Version: 2.1.0 Build 142)  -->
  <path d="M76.41,61.35v.26c.03-.08.07-.17.1-.26h-.1ZM76.41,61.35v.26c.03-.08.07-.17.1-.26h-.1ZM76.41,61.35v.26c.03-.08.07-.17.1-.26h-.1ZM76.41,61.35v.26c.03-.08.07-.17.1-.26h-.1ZM76.41,61.35v.26c.03-.08.07-.17.1-.26h-.1ZM76.41,61.35v.26c.03-.08.07-.17.1-.26h-.1ZM76.41,61.35v.26c.03-.08.07-.17.1-.26h-.1ZM76.41,61.35v.26c.03-.08.07-.17.1-.26h-.1ZM76.41,61.35v.26c.03-.08.07-.17.1-.26h-.1ZM76.41,61.35v.26c.03-.08.07-.17.1-.26h-.1ZM76.41,61.35v.26c.03-.08.07-.17.1-.26h-.1ZM76.41,61.35v.26c.03-.08.07-.17.1-.26h-.1ZM76.41,61.35v.26c.03-.08.07-.17.1-.26h-.1ZM76.41,61.35v.26c.03-.08.07-.17.1-.26h-.1ZM76.41,61.35v.26c.03-.08.07-.17.1-.26h-.1ZM76.41,61.35v.26c.03-.08.07-.17.1-.26h-.1ZM76.41,61.35v.26c.03-.08.07-.17.1-.26h-.1ZM76.41,61.35v.26c.03-.08.07-.17.1-.26h-.1ZM76.41,61.35v.26c.03-.08.07-.17.1-.26h-.1ZM76.41,61.35v.26c.03-.08.07-.17.1-.26h-.1ZM76.41,61.35v.26c.03-.08.07-.17.1-.26h-.1ZM76.41,61.35v.26c.03-.08.07-.17.1-.26h-.1ZM76.41,61.35v.26c.03-.08.07-.17.1-.26h-.1ZM76.41,61.35v.26c.03-.08.07-.17.1-.26h-.1Z"/>
  <path d="M97.56,51.37l2.44-11.64h-14.29c-.15,0-.3,0-.45.02l.45-2.09h0s.43-2.01.43-2.01h4.69l5.4-26.58H24.26s-4.45,21.13-4.45,21.13l-.44,2.09H7.37l-2.33,11.27h2.06l-2.66,12.46h-1.95l-2.47,11.22h15.14l2.15-9.98c.35.8.7,1.59,1.05,2.38l-2.08,9.69-.35,1.63c-1.14,5.43,0,10.75,3.11,14.58,2.83,3.49,6.99,5.41,11.72,5.41h27.38c9.63,0,18.17-9.46,20.11-18.32l.71-3.31.45-2.09h9.91c3.08,0,6.16-2.54,6.88-5.68l1.25-5.96c.31-1.51.12-2.99-.51-4.2h.65ZM92.47,12.13l-4.16,20.46h-4.66l-1.53,7.14h-3.13l2.18-10.2h4.64l2.91-14.34h-24.25l-5.17,24.54h-3.13l5.82-27.6h30.48ZM42.72,67.22h10.78l-.66,3.15h-10.78l.66-3.15ZM58.73,64.7h-7.33l.45-4.49.1-1h-3.93l-1.23,3.53-.68,1.96h-7.51l.82-3.93.16-.73h1.7l6.42-16.44.53-1.35h10.22l-.03,1.61-.25,16v.12h1.56l-1.01,4.72ZM22.95,30.19l3.8-18.06h30.73l-5.82,27.6h-3.13l5.17-24.54h-24.47l-3.02,14.33h4.85l-1.45,6.75-2.17,2.8-2.17,2.8,1.99-9.28h-4.83l.5-2.39ZM17.81,52.14c-.19-.43-.37-.86-.55-1.29l-.78-1.82-3.37,15.68H3.14l1.36-6.18h1.96l3.74-17.5h-2.07l1.29-6.23h9.83l1.09,2.93.36.96,1.19,3.21.16.44.07.19,1.89,5.09.05-.07,2.16-2.8,2.17-2.8,4.33-5.59,1.21-1.57h9.6l-1.29,6.23h-1.95s-3.67,17.49-3.67,17.49h2.01l-1.35,6.18h-9.82l3.41-16.06-1.09,1.41-4.32,5.57-2.17,2.79-1.74,2.24c-.07-.15-.13-.31-.21-.46-.61-1.37-1.23-2.77-1.85-4.19-.08-.19-.17-.39-.26-.58-.48-1.09-.95-2.19-1.43-3.28ZM75.23,71.99c-.83,3.79-3.03,7.69-6.05,10.71-3.34,3.34-7.27,5.19-11.07,5.19h-28.9v-.09c-3.15-.36-5.88-1.81-7.81-4.19-2.53-3.11-3.44-7.5-2.49-12.02l1.55-7.22.51,1.15,1.11-1.43h0s2.16-2.79,2.16-2.79l-2.34,10.92c-.76,3.61-.07,7.07,1.87,9.46,1.65,2.03,4.12,3.14,6.97,3.14h1.53s25.84,0,25.84,0c6.4,0,12.73-7.12,14.13-13.48l.9-4.2c.34-.06.68-.14,1.02-.26l-.07.34h2.17l-1.02,4.77ZM76.61,61c-.03.12-.06.24-.1.35-.03.09-.06.17-.1.26-.19.48-.47.93-.82,1.33-.51.61-1.17,1.1-1.86,1.41-.5.22-1.03.34-1.54.34h-12.09l1.46-6.92h6.01l-.49,2.19h3.44l1.01-4.59h-6.08c-.92,0-1.72-.37-2.26-1.03-.66-.83-.89-2.02-.61-3.28l1.11-5.31c.47-2.2,2.88-3.51,4.93-3.51h11.19l-.93,4.43-.45,2.17h-5.49l.42-1.98h-3.58l-.9,4.27h6.36c.47,0,.9.1,1.28.3.3.15.56.36.77.62.2.25.36.53.47.85h0c.23.64.27,1.37.12,2.15l-1.09,5.15-.16.79ZM95.51,48.85h-5.49l.42-1.98h-3.58l-.9,4.27h6.36c.83,0,1.56.33,2.05.93.61.74.82,1.84.59,3l-1.25,5.94c-.45,1.97-2.51,3.69-4.42,3.69h-12.09l.71-3.34.24-1.14.51-2.43h6.01l-.49,2.19h3.44l1.01-4.59h-6.08c-.21,0-.42-.02-.62-.06-.66-.13-1.23-.46-1.65-.98-.56-.68-.8-1.62-.71-2.64.02-.21.05-.42.1-.64l.92-4.39.19-.92c.05-.22.11-.44.2-.64.62-1.49,2.17-2.47,3.73-2.77.34-.07.68-.1,1.01-.1h11.19l-1.39,6.6Z"/>
  <polygon points="52.76 45.45 52.27 55.21 49.32 55.21 52.76 45.45"/>
</svg>