<?xml version="1.0" encoding="UTF-8"?>
<svg id="Layer_1" data-name="Layer 1" xmlns="http://www.w3.org/2000/svg" viewBox="0 0 77.62 100">
  <defs>
    <style>
      .cls-1 {
        fill: #231f20;
      }
    </style>
  </defs>
  <path class="cls-1" d="M25.99,51.76c.65-.6,1.25-1.62.83-3.1v-.05s-.65-1.67-.09-3.47l.19-.6-.65.09c-.09,0-.83.14-1.71,1.02-.74-1.48-2.17-2.64-3.61-3.38.56,1.71.6,2.36.19,3.1-1.02-.93-2.22-1.11-2.27-1.11l-.69-.09.28.65c.46,1.06.09,1.76-.32,2.64-.32.65-.65,1.34-.65,2.22,0,1.16.6,1.9,1.11,2.27-.37.37-.65.88-.65,1.43,0,.74.37,1.34.93,1.67.19.56.56,1.02,1.11,1.3l.65,12.95c-.79.19-1.39.88-1.39,1.71,0,.88.69,1.62,1.53,1.71l.28,5.18c0,.79.6,1.39,1.39,1.39s1.39-.6,1.39-1.39l.23-5.23c.88-.09,1.57-.83,1.53-1.71,0-.83-.6-1.53-1.39-1.71l.56-12.9c.56-.28.97-.74,1.16-1.34.56-.32.93-.97.93-1.67.05-.6-.32-1.2-.83-1.57M25.81,45.74c-.28,1.62.23,2.96.28,3.19.46,1.67-.79,2.41-1.06,2.59h-1.3c.79-1.02,1.43-2.36,1.43-3.56,0-.37-.05-.69-.09-1.02l-.09-.37c.28-.42.56-.69.83-.83M22.16,43.89c.97.79,2.22,2.31,2.22,4.02,0,1.57-1.34,3.33-1.67,3.56-.28-.37-.6-1.02-.6-1.76,0-1.3.65-2.04.65-2.04,0,0-.93.6-1.06,1.8-.05.6.05,1.2.46,1.99h-.56c-.14-.23-1.25-1.62-.32-3.15.14-.23.83-1.25.93-1.43.09-.23.09-.46.09-.46-.09.19-.32.42-.32.42-.19.23-.88.93-1.06,1.16-1.3,1.57-.05,3.33.05,3.47h-.51c-.6-.65-.79-1.3-.69-2.27.05-2.17,2.68-2.45,2.41-5.32M18.27,49.68c0-.69.28-1.25.56-1.85.37-.74.74-1.53.56-2.54.37.14.83.42,1.25.79-.28.32-.56.65-.69.83-1.11,1.3-1.53,2.87-.32,4.63h-.19s-1.16-.46-1.16-1.85M23.08,77.84c0,.32-.23.65-.6.65-.32,0-.6-.28-.6-.65l-.28-5.18h.32l.19,5c0,.37.19.46.19.46l-.09-5.46h1.16l-.28,5.18ZM24.84,70.95c0,.51-.42.97-.97.97h-2.91c-.51,0-.97-.42-.97-.97,0-.51.42-.97.97-.97h2.91c.56,0,.97.46.97.97M20.77,56.57s.19.05.51.05l.46,12.63h-.37l-.6-12.67ZM21.88,56.66c.6.05,1.34,0,2.17-.09l-.56,12.67h-1.34l-.28-12.58ZM23.82,55.78h-2.78c-.46,0-.88-.23-1.16-.56h5.09c-.28.37-.69.56-1.16.56M25.12,54.44h-5.41c-.51,0-.97-.46-.97-1.11s.46-1.11.97-1.11h5.41c.51,0,.97.46.97,1.11,0,.65-.46,1.11-.97,1.11"/>
  <path class="cls-1" d="M58.33,51.76c.65-.6,1.3-1.62.83-3.1v-.05s-.65-1.67-.09-3.47l.19-.6-.6.09c-.09,0-.83.14-1.71,1.02-.74-1.48-2.17-2.64-3.61-3.38.56,1.71.6,2.36.19,3.1-1.02-.93-2.22-1.11-2.27-1.11l-.69-.09.28.65c.46,1.06.09,1.76-.32,2.64-.32.65-.65,1.34-.65,2.22,0,1.16.6,1.9,1.16,2.27-.37.32-.65.88-.65,1.43,0,.74.37,1.34.93,1.67.19.56.6,1.02,1.11,1.3l.65,12.95c-.79.19-1.39.88-1.39,1.71,0,.88.69,1.62,1.53,1.71l.28,5.18c0,.79.65,1.39,1.39,1.39.79,0,1.39-.6,1.39-1.39l.23-5.23c.88-.09,1.57-.83,1.53-1.71,0-.83-.6-1.53-1.39-1.71l.56-12.9c.56-.28.97-.74,1.16-1.34.56-.32.93-.97.93-1.67-.05-.6-.37-1.2-.93-1.57M58.14,45.74c-.28,1.62.23,2.96.32,3.19.46,1.67-.79,2.41-1.06,2.59h-1.34c.79-1.02,1.43-2.36,1.43-3.56,0-.37-.05-.69-.09-1.02l-.09-.37c.28-.42.56-.69.83-.83M54.49,43.89c.97.79,2.22,2.31,2.22,4.02,0,1.57-1.34,3.33-1.67,3.56-.28-.37-.6-1.02-.6-1.76,0-1.3.65-2.04.65-2.04,0,0-.93.6-1.06,1.8-.05.6.05,1.2.46,1.99h-.56c-.14-.23-1.25-1.62-.32-3.15.14-.23.83-1.25.93-1.43.09-.23.09-.46.09-.46-.09.19-.32.42-.32.42-.19.23-.88.93-1.06,1.16-1.3,1.57-.05,3.33.05,3.47h-.51c-.6-.65-.79-1.3-.69-2.27.05-2.17,2.68-2.45,2.41-5.32M50.6,49.68c0-.69.28-1.25.56-1.85.37-.74.74-1.53.56-2.54.37.14.83.42,1.25.79-.28.32-.56.65-.69.83-1.11,1.3-1.53,2.87-.32,4.63h-.19s-1.16-.46-1.16-1.85M55.41,77.84c0,.32-.28.65-.6.65s-.6-.28-.6-.65l-.28-5.18h.32l.19,5c0,.37.19.46.19.46l-.09-5.46h1.16l-.28,5.18ZM57.17,70.95c0,.51-.42.97-.97.97h-2.91c-.51,0-.97-.42-.97-.97,0-.51.42-.97.97-.97h2.91c.56,0,.97.46.97.97M53.1,56.57s.19.05.51.05l.46,12.63h-.32l-.65-12.67ZM54.21,56.66c.6.05,1.34,0,2.17-.09l-.56,12.67h-1.34l-.28-12.58ZM56.15,55.78h-2.78c-.46,0-.88-.23-1.16-.56h5.09c-.28.37-.69.56-1.16.56M57.45,54.44h-5.41c-.51,0-.97-.46-.97-1.11s.46-1.11.97-1.11h5.41c.51,0,.97.46.97,1.11s-.46,1.11-.97,1.11"/>
  <path class="cls-1" d="M43.62,53.1c.83-.69,1.85-2.04,1.25-4.21v-.05s-.97-2.36-.14-4.9l.19-.6-.65.09s-1.11.14-2.41,1.53c-1.25-2.59-3.89-4.16-4.02-4.26l-.97-.56.37,1.06c.14.42.51,1.76.19,2.64-.09.28-.23.51-.32.74-1.39-1.39-3.15-1.62-3.19-1.62l-.69-.09.28.65c.65,1.53.14,2.54-.46,3.75-.42.88-.88,1.8-.88,2.96,0,1.62.83,2.59,1.62,3.1-.6.46-.97,1.16-.97,1.99,0,.97.56,1.8,1.39,2.22.14.83.69,1.53,1.43,1.85l.83,18.18c-1.02.19-1.8,1.11-1.8,2.17,0,1.16.88,2.08,2.04,2.17l.32,7.31c0,1.02.83,1.85,1.9,1.85s1.9-.83,1.85-1.85l.32-7.31c1.16-.05,2.13-1.02,2.13-2.22,0-1.11-.83-2.04-1.9-2.17l.83-18.18c.79-.37,1.34-1.06,1.48-1.85.79-.42,1.34-1.25,1.34-2.22-.05-.93-.56-1.71-1.34-2.17M43.76,44.45c-.51,2.41.23,4.39.37,4.67.6,2.22-.83,3.33-1.43,3.7h-2.17c.83-1.02,2.04-2.91,2.04-5.32,0-.6-.09-1.2-.28-1.76.56-.69,1.06-1.06,1.48-1.3M38.21,44.08c.23-.69.19-1.48.09-2.13,1.25.97,3.38,2.96,3.38,5.55s-1.67,4.63-2.31,5.27h-.09c-.37-.51-.79-1.39-.79-2.41,0-1.8.88-2.82.88-2.82,0,0-1.3.83-1.48,2.5-.09.79.09,1.62.6,2.73h-.79c-.23-.37-1.71-2.22-.46-4.3.23-.37,1.16-1.71,1.25-1.99.14-.32.14-.65.14-.65-.14.28-.42.56-.42.56-.28.28-1.2,1.25-1.48,1.62-1.76,2.13-.14,4.53.05,4.81h-.88c-2.45-3.19.14-5.74.23-5.83l.05-.05c.19-.19.32-.37.51-.51.6-.69,1.16-1.3,1.53-2.36M32.93,50.23c0-.97.37-1.76.79-2.64.56-1.11,1.11-2.22.69-3.7.6.19,1.43.6,2.17,1.34-.19.23-.37.42-.6.65-.14.19-.32.32-.51.56-.23.23-2.87,3.01-.65,6.43-.09,0-.19.05-.28.05-.14-.14-1.57-.79-1.62-2.68M37.23,59.62l.74,17.9h-.69l-.83-17.95h.23l.56.05ZM39.92,89.22c0,.6-.46,1.06-1.06,1.06s-1.06-.46-1.06-1.06l-.32-7.26h.65l.28,7.12c0,.51.23.65.23.65l-.14-7.77h1.76l-.32,7.26ZM42.37,79.74c0,.79-.65,1.39-1.39,1.39h-4.16c-.79,0-1.39-.65-1.39-1.39,0-.79.65-1.39,1.39-1.39h4.16c.79,0,1.39.6,1.39,1.39M40.47,77.52h-2.08l-.23-17.9h3.1l-.79,17.9ZM40.98,58.79h-4.35c-.69,0-1.3-.42-1.57-1.02h7.54c-.19.6-.88,1.02-1.62,1.02M42.41,56.98h-7.12c-.93,0-1.67-.74-1.67-1.67s.74-1.67,1.67-1.67h7.12c.14,0,.23,0,.37.05h0c.74.19,1.3.83,1.3,1.62.05.93-.74,1.67-1.67,1.67"/>
  <path class="cls-1" d="M77.57,21.83l-.14-2.36c-.14-2.17-.42-4.44-.79-6.75l-.28-1.57c-.14-.83-.32-1.67-.51-2.5l-.14-.69-.69.19s-1.16.32-3.01.65l-4.58.51c-.93.05-1.85.09-2.87.09-2.64,0-5.27-.23-7.77-.69l-1.62-.32h-.09s-1.34-.28-3.28-.93l-2.13-.79c-2.13-.83-4.67-2.08-7.17-3.75l-2.08-1.53c-.42-.32-.79-.65-1.16-.97l-.46-.42-.46.42s-.37.37-1.11.93l-2.13,1.53c-1.76,1.16-4.16,2.54-7.22,3.79l-2.13.79c-1.02.37-2.13.69-3.24.97h-.09l-1.85.42c-2.17.42-4.53.6-6.98.6-1.2,0-2.36-.05-3.47-.14l-4.58-.51c-1.8-.28-2.91-.56-2.96-.56l-.69-.19-.14.69c-.14.69-.28,1.34-.42,2.04l-.37,2.04c-.37,2.27-.6,4.49-.74,6.61l-.14,2.36c-.05,1.16-.09,2.27-.09,3.33v2.27c.14,6.38.88,10.82.97,11.19.09.56,1.43,10.87,6.57,23.27,4.81,11.66,14.06,27.66,30.62,37.74l.74.42.74-.42c16.56-10.13,25.76-26.13,30.53-37.79,5.09-12.44,6.43-22.76,6.48-23.31.05-.37.79-4.72.93-11.05v-2.27c.09-1.06.05-2.17,0-3.33M59.71,38.71l-.19-.65c-2.41.65-4.07.93-5.37.93h0c-2.22,0-5.64-.28-9.48-1.62-1.06-.37-2.31-.79-3.65-.97-1.39-.23-2.54-.28-3.84-.09-1.62.23-3.05.69-4.26,1.11-3.84,1.34-7.26,1.67-9.48,1.67h0c-1.9,0-4.49-.69-6.8-1.34l-.19.65.19-.65c-.65-.19-1.3-.37-1.94-.56l-.74-.23c-1.39-.42-3.65-.69-5.32-.69h0c-2.27,0-4.3.51-6.29,1.53-.05-.32-.14-.83-.19-1.43,1.99-1.06,4.21-1.67,6.48-1.67h.05c1.53,0,3.7.28,4.95.65l2.68.79.19-.65-.19.65c2.54.74,5.18,1.39,7.22,1.39h0c2.31,0,5.87-.32,9.94-1.71,1.16-.42,2.54-.83,3.98-1.02l1.34-.09h.09l2.04.19c1.25.23,2.45.6,3.42.93,4.02,1.39,7.59,1.71,9.9,1.71h.05c1.39,0,3.15-.32,5.69-.97,1.06-.28,2.08-.6,3.1-.88l1.11-.32c1.2-.37,3.47-.65,5.04-.65h0c2.27,0,4.53.6,6.52,1.67-.09.6-.14,1.06-.19,1.39-1.99-1.02-4.07-1.48-6.34-1.48h0c-1.48,0-3.89.28-5.41.69l-1.11.32c-.97.28-2.04.6-3.05.88l.05.56ZM23.59,34.55h0c1.62,0,3.89-.19,6.43-.74,1.11-.23,2.27-.56,3.52-1.02,1.16-.42,2.54-.83,3.98-1.02l1.43-.09,2.04.19c1.3.23,2.5.6,3.42.93,1.48.51,2.91.88,4.26,1.16,2.27.42,4.21.56,5.64.56h0c1.39,0,3.15-.32,5.69-.97,1.06-.28,2.13-.6,3.19-.93l1.02-.32c1.25-.37,3.52-.65,5.04-.65h0c2.31,0,4.72.6,6.75,1.62-.05.56-.09,1.06-.14,1.48-2.08-1.02-4.35-1.57-6.71-1.57h0c-1.48,0-3.93.28-5.41.69l-1.11.32c-.97.28-2.04.6-3.05.88-1.53.42-3.75.93-5.37.93-2.17,0-5.6-.28-9.44-1.62-.46-.19-1.02-.37-1.62-.51-.65-.19-1.3-.37-2.04-.46-.79-.14-1.53-.19-2.22-.19-.56,0-1.06.05-1.57.09h0c-.83.09-1.62.28-2.41.51-.69.19-1.3.42-1.9.6-3.84,1.34-7.26,1.67-9.48,1.67h0c-1.85,0-4.49-.69-6.8-1.34l-2.68-.79c-1.39-.42-3.65-.69-5.32-.69h-.05c-2.31,0-4.63.56-6.66,1.57-.05-.46-.09-.93-.14-1.43,2.04-1.06,4.53-1.71,6.94-1.71h0c1.53,0,3.7.28,4.95.65l2.68.79.19-.65-.19.65c2.45.79,5.09,1.43,7.12,1.43M38.95,30.34v.09-.09c-.56,0-1.06.05-1.62.09h0c-1.57.19-3.05.65-4.26,1.11-3.28,1.16-6.29,1.53-8.46,1.62.97-7.12,7.03-12.44,14.29-12.44h0c7.17,0,13.27,5.37,14.29,12.4-2.17-.09-5.09-.46-8.37-1.62-.97-.32-2.27-.74-3.65-1.02v.05-.05c-.79-.09-1.48-.14-2.22-.14M59.81,32.89l-.19-.65c-1.43.37-3.47.88-5.09.93-.19-1.39-.56-2.68-1.06-3.93l22.8-1.71c-.05,1.57-.09,3.01-.19,4.3-2.08-.97-4.53-1.53-6.85-1.53h0c-1.48,0-3.89.28-5.41.69l-1.06.32c-1.02.28-2.08.6-3.15.88l.18.69ZM76.32,25.35l-23.17,3.1c-.19-.37-.37-.74-.56-1.11l23.68-5.18c0,1.11.05,2.17.05,3.19M75.39,13.37c.32,2.22.6,4.44.74,6.52l-24.01,6.71c-.42-.65-.88-1.25-1.39-1.8l24.65-11.42ZM69.38,10.55c2.5-.28,4.39-.65,5.37-.88.09.42.14.88.23,1.3l-24.79,13.27c-.23-.28-.51-.51-.79-.74l19.98-12.95ZM56.85,10.13c2.5.42,5.09.65,7.72.65h.93l-16.65,12.21c-.69-.56-1.39-1.06-2.13-1.48l10.13-11.38ZM51.16,8.7c1.43.51,2.54.79,3.15.93l-8.51,11.38c-.42-.23-.88-.42-1.34-.6l6.71-11.7ZM42.37,4.44c2.41,1.53,4.76,2.68,6.8,3.52l-5.6,12.16c-1.02-.32-2.13-.56-3.24-.65l2.04-15.03ZM38.85,1.85c.51.42,1.02.83,1.53,1.2l-.93,16.37c-.19,0-.37-.05-.56-.05h-.05c-.19,0-.37,0-.6.05l-.93-16.42c.69-.46,1.2-.88,1.53-1.16M35.34,4.44l2.04,15.03c-1.11.09-2.22.32-3.24.65l-5.6-12.21c2.78-1.11,5.09-2.36,6.8-3.47M26.5,8.7l6.71,11.75c-.46.19-.88.37-1.34.6l-8.51-11.38c1.11-.32,2.13-.65,3.15-.97M13.64,10.87c2.59,0,5-.23,7.26-.65l10.08,11.29c-.79.46-1.48.97-2.17,1.53L12.16,10.82c.46,0,.97.05,1.48.05M3.01,9.76c.97.19,2.82.56,5.27.83l19.98,12.95c-.28.23-.56.51-.79.74L2.78,11.05c.05-.46.14-.88.23-1.3M2.31,13.41l24.61,11.42c-.46.56-.93,1.11-1.3,1.71L1.62,19.84c.14-2.08.37-4.21.69-6.43M1.53,22.11l23.68,5.18c-.23.37-.42.74-.6,1.11L1.43,25.3c0-1.02.05-2.13.09-3.19M24.28,29.23c-.51,1.25-.88,2.59-1.02,3.98-1.85-.09-4.3-.69-6.48-1.34l-2.68-.79c-1.39-.42-3.65-.69-5.32-.69h0c-2.41,0-4.9.56-7.03,1.57-.09-1.34-.19-2.82-.19-4.49l22.71,1.76ZM68.96,61.29c-4.72,11.47-13.74,27.2-29.97,37.14-16.28-9.85-25.35-25.58-30.11-37.05-4.35-10.59-5.97-19.57-6.34-22.2,1.94-1.11,3.89-1.62,6.06-1.62h0c1.53,0,3.7.28,4.95.65l.74.23c.65.19,1.3.37,1.94.56h0c2.41.69,5.13,1.39,7.22,1.39h0c2.31,0,5.87-.32,9.94-1.71,1.16-.42,2.5-.83,3.98-1.02l1.34-.09h.09l2.04.19c1.25.23,2.41.6,3.42.93,4.02,1.39,7.59,1.71,9.9,1.71h0c1.39,0,3.19-.32,5.69-.97h0c1.02-.28,2.08-.6,3.1-.88l1.11-.32c1.25-.37,3.52-.65,5.04-.65h0c2.17,0,4.21.51,6.11,1.57-.32,2.5-1.9,11.56-6.24,22.16"/>
</svg>